<?xml version="1.0" encoding="utf-8"?>
<!-- Generator: Adobe Illustrator 23.0.3, SVG Export Plug-In . SVG Version: 6.00 Build 0)  -->
<svg version="1.1" id="Calque_1" xmlns="http://www.w3.org/2000/svg" xmlns:xlink="http://www.w3.org/1999/xlink" x="0px" y="0px"
	 viewBox="0 0 1061.3 451.6" style="enable-background:new 0 0 1061.3 451.6;" xml:space="preserve">
<style type="text/css">
	.st0{fill:#FE3E00;}
	.st1{fill:#374C53;}
	.st2{fill:#699CFE;}
	.st3{fill:#FED42C;}
	.st4{fill:#FEDA33;}
	.st5{fill:#B23FFD;}
	.st6{fill:#BA35FD;}
	.st7{fill:#758EFD;}
	.st8{fill:#60A8FE;}
	.st9{fill:#9860FD;}
	.st10{fill:#8679FD;}
	.st11{fill:#9168FD;}
	.st12{fill:#9E58FD;}
	.st13{fill:#AB48FD;}
	.st14{fill:#8B70FD;}
	.st15{fill:#A450FD;}
	.st16{fill:#7C82FD;}
	.st17{fill:#8578FD;}
	.st18{fill:#85858B;}
	.st19{fill:#5AAFFE;}
	.st20{fill:#464650;}
	.st21{fill:#FBDE50;}
	.st22{fill:#C95074;}
	.st23{fill:#53B8FE;}
	.st24{fill:#AB48FC;}
	.st25{fill:#45464F;}
	.st26{fill:#4BBFFC;}
	.st27{fill:#AB9593;}
	.st28{fill:#BF5589;}
	.st29{fill:#6FA1B6;}
	.st30{fill:#DF4843;}
	.st31{fill:#4B9FC0;}
	.st32{fill:#7D80F7;}
	.st33{fill:#B05AAE;}
	.st34{fill:#A75FD5;}
	.st35{fill:#05A6D2;}
	.st36{fill:#F14C1E;}
	.st37{fill:#1FB1DD;}
	.st38{fill:#FE673A;}
	.st39{fill:#FC7E59;}
	.st40{fill:#23B7E8;}
	.st41{fill:#F2481C;}
	.st42{fill:#E94830;}
	.st43{fill:#25A7CE;}
	.st44{fill:#FEFEFE;}
	.st45{fill:#039BC5;}
	.st46{fill:#23B7EA;}
	.st47{fill:#008AB7;}
	.st48{fill:#01ACD9;}
	.st49{fill:#BEDADF;}
	.st50{fill:#05A4CE;}
	.st51{fill:#05A4CD;}
	.st52{fill:#05A3CC;}
	.st53{fill:#07A4CE;}
	.st54{fill:#05A5CE;}
	.st55{fill:#23B7E9;}
	.st56{fill:#30758C;}
	.st57{fill:#11B7E6;}
	.st58{fill:#1DBFF1;}
	.st59{fill:#1DC0F2;}
	.st60{fill:#D3ECF0;}
	.st61{fill:#039CC6;}
	.st62{fill:#22AED8;}
	.st63{fill:#325966;}
	.st64{fill:#24A8CC;}
	.st65{fill:#384B52;}
	.st66{fill:#3A474D;}
	.st67{fill:#2C6576;}
	.st68{fill:#21ACD6;}
	.st69{fill:#21B6DF;}
	.st70{fill:#FECE27;}
	.st71{fill:#384C53;}
	.st72{fill:#FEAA04;}
	.st73{fill:#FEC51E;}
	.st74{fill:#FECA22;}
	.st75{fill:#FEC119;}
	.st76{fill:#FEBB13;}
	.st77{fill:#FEB50D;}
	.st78{fill:#FA4009;}
	.st79{fill:#06ADDA;}
	.st80{fill:#1DA8CF;}
	.st81{fill:#465A62;}
	.st82{fill:#C3DCE1;}
	.st83{fill:#BEDCE2;}
	.st84{fill:#B0D1D8;}
	.st85{fill:#CAE5EA;}
	.st86{fill:#345863;}
	.st87{fill:#3A464C;}
	.st88{fill:#345762;}
	.st89{fill:#374D55;}
	.st90{fill:#3D3D3E;}
	.st91{fill:#2D6474;}
	.st92{fill:#0A97B9;}
	.st93{fill:#2B6677;}
	.st94{fill:#226F84;}
	.st95{fill:#384B53;}
	.st96{fill:#39494F;}
	.st97{fill:#1ABDEF;}
	.st98{fill:#345964;}
	.st99{fill:#039DC7;}
	.st100{fill:#216F85;}
	.st101{fill:#3E3B3C;}
	.st102{fill:#394950;}
	.st103{fill:#17BBEC;}
	.st104{fill:#335964;}
	.st105{fill:#059AC1;}
	.st106{fill:#384C54;}
	.st107{fill:#21B1DC;}
	.st108{fill:#384D55;}
	.st109{fill:#2A90AE;}
	.st110{fill:#24A8CE;}
	.st111{fill:#23B8EA;}
	.st112{fill:#335B68;}
	.st113{fill:#25A6CB;}
	.st114{fill:#2D6575;}
	.st115{fill:#335965;}
	.st116{fill:#22B9EB;}
	.st117{fill:#24A2C8;}
	.st118{fill:#25A6CC;}
	.st119{fill:#39484F;}
	.st120{fill:#335863;}
	.st121{fill:#21B9E2;}
	.st122{fill:#1CCDFC;}
	.st123{fill:#25A7CD;}
	.st124{fill:#21BAEC;}
	.st125{fill:#2A91B0;}
	.st126{fill:#39484E;}
	.st127{fill:#333333;}
	.st128{fill:#70A760;}
	.st129{fill:#619A56;}
	.st130{fill:#76B45C;}
	.st131{fill:#3E853D;}
	.st132{fill:#3F863E;}
	.st133{fill:#6DBB4C;}
	.st134{fill:#4E4E4E;}
	.st135{fill:#56994C;}
	.st136{fill:#689E63;}
	.st137{fill:#4A4A4A;}
	.st138{fill:#494949;}
	.st139{fill:#464646;}
	.st140{fill:#A8A8A8;}
	.st141{fill:#525252;}
</style>
<g>
	<path class="st0" d="M550.7,187.9c-36.6-0.1-63.4-33-55.8-68.3c0.4-1.8,0.6-3.8,1.6-5.2c5-7,3.7-13.9,1.4-21.7
		c-6.5-22.1,2.4-44.5,21.7-56.8c14.4-9.2,28.9-18.3,43.3-27.5c29.5-18.7,70.5-4.9,83.1,27.7c6.1,15.9,5.1,31.2-3.1,46.1
		c-0.8,1.5-0.9,2.5-0.2,4.1c11.5,26.8,3,52.6-21.7,67.7c-14.2,8.7-28,17.8-42.1,26.6C570.1,185.9,561.9,187.9,550.7,187.9z"/>
	<path class="st1" d="M272.6,116.4c-12.6,0-25.3,0.1-37.9-0.1c-3.3,0-5.4,0.9-7.3,3.8c-22.4,33.7-54.9,50.2-94.4,54.5
		c-17.4,1.9-34.6,1.8-51.3-4.3c-23.7-8.6-39.7-24.5-45.7-49.4c-0.9-3.7-2.6-4.7-6.2-4.6c-8.5,0.2-16.9,0.1-25.7-0.9
		c2-0.7,4.1-1.3,6.1-2.2c1.8-0.8,4.3-1.6,5-3.1c2.3-5.4,4.7-3,8-1.1c9.3,5.4,10.8,4.5,10.9-5.9c0-0.5,0-1,0-1.5
		c0.2-8.3,0.2-8.3,8.4-8.3c13.6,0,13.6,0,13.6-13.4c0-12.3,0-12.3,12.3-12.3c12.6,0,12.6,0,12.6-12.4c0-12.6,0-12.6,12.5-12.6
		c10.8,0,21.7-0.1,32.5,0.1c3.7,0.1,5-1.2,4.9-4.9c-0.2-5.3,0-10.7-0.1-16c-0.1-3,1.2-4.2,4.1-4.1c7.2,0.1,14.3,0.2,21.5,0
		c3.6-0.1,4.5,1.5,4.5,4.8c-0.1,13.3,0.1,26.7-0.1,40c-0.1,3.9,1.1,5.4,5.1,5.2c4.8-0.3,9.7,0.1,14.5-0.1c3.6-0.2,5.1,1,5,4.8
		c-0.2,5.7,0,11.3-0.1,17c0,2.3,0.5,3.9,3.3,4c10.6,0.2,21-0.4,30.8-4.8c2.9-1.3,3.4-2.4,2-5.6c-5.4-11.9-5.4-23.8,1.5-35.3
		c2.1-3.6,4.2-4.4,7.7-1.2c6.3,5.9,11.9,12.2,14,20.8c0.8,3.2,2.4,3.3,5.1,2.8c8.3-1.5,16.2-0.6,23.8,3.2c3.2,1.6,3.9,3.4,2,6.6
		c-6.4,11.3-16.7,16.1-29,16.5c-5.4,0.2-8.4,1.7-9.7,6.8c0,0.2-0.2,0.3-0.2,0.5c-0.9,3-4.8,6.3-3.1,8.3c2,2.4,6.6,0.9,10,0.5
		c4.7-0.6,9.1-2.1,13-4.9c0.8-0.6,2.3-2.3,2.8-1C261.5,113,267.7,113.2,272.6,116.4z"/>
	<path class="st2" d="M921.8,63c0.8,0.1,1.6,0.2,2.3,0.4c2.5,0.8,2.2,2.8,2.2,4.8c-0.1,2.4-0.7,4.8-0.7,7.3c1,4.8,0,9.4-1.2,13.9
		c-1.1,2.1,0.3,7.1-5,4.2c-0.5-0.3-0.9,0.2-1.2,0.6c-4.8,6.7-13.4,8.1-19.1,13.7c-2.9,2.8-6.2,5.4-9.9,7.4c-2.4,1.3-4.7,2.4-7.5,1.6
		c-4.1-6.1-7.8-12.6-10.9-19.3c1.5-3.7,5.5-4.5,8.3-6.8c10.1-8.6,21.8-15.1,32-23.6C914.1,64.7,917.7,63.1,921.8,63z"/>
	<path class="st3" d="M924.1,75.6c0-4.1,0-8.1,0.1-12.2c1.6-5.5,0.2-11.3,1.7-16.8c2.8,1.6,2.1,4.3,2.1,6.7c0,3.2,1.2,3.3,4.2,3.3
		c7.6,0.2,14.6-4.1,22.2-2.6c1.6,0.3,3.2-0.9,4.7-1.5c5.6-2.4,11.2-2.7,16.9-0.7c0.3,0.1,0.4,0.5,0.5,0.8c1.1-5.3,6.1-2.5,9.1-4.2
		c4.6-2.6,10-2.2,15.2-1.7c-1.3,4.9-2.5,9.8-3.8,14.6c1.4,3.2,0.7,5.7-2.2,7.7c-5.7,1.1-11.9-0.3-17.2,3.1c-0.3,0.2-0.6,0.2-1,0.2
		c-9-1.4-17.8,1-26.5,2.4c-6.3,0.9-13.1-0.7-19,3.3C928.8,79.5,926,77.8,924.1,75.6z"/>
	<path class="st4" d="M1000.7,46.6c-0.7,0.7-2.7-0.1-2.3,1.9c0.3,1.6-1.1,2-1.7,1.6c-2.7-1.8-5.3-1.3-8.1-0.4
		c-0.7,0.2-1.9-0.4-2.7,0.4c-1.6,1.8-3.2,2.7-5.6,1.2c-0.7-0.5-2-0.4-2.8,0.5c-1.2,1.5,2.1,1.1,1,2.7c-8-3.5-15.7-1.9-23.1,2.1
		c-1,0.5-1.5,0.4-2,0c-2.5-2.2-6.3-1.3-7.6-0.1c-4.7,4.6-10.8-0.6-15.5,2.9c-0.9,0.6-4.9,0.2-4.6-3.7c0.3-3,0-6,0-8.9
		c-0.1-0.3-0.1-0.6,0.1-0.9c4.3-4.7,10.4-4.1,15.7-4.9c19.5-3,39.1-5.3,58.7-8.3c1.4-0.2,2.9-0.9,4.3,0.2
		C1003.3,37.3,1002,42,1000.7,46.6z"/>
	<path class="st5" d="M998.9,168.6c-5.3,9.5-10.5,18.9-15.8,28.4c-7.7,2.1-12.9,8-19,12.6c-6.1,4.6-12.1,9.4-18.5,13.7
		c-0.9,0.6-1.8,0.7-2.8,0.7c-2.5-3.1-4.3-6.6-5.9-10.2c-1-2.7,0.4-4.5,2.5-5.7c3.7-2.2,7-4.8,9.6-8.2c2.6-3.4,4-0.5,5.6,1.3
		c2.6,1.5,2.6-1.2,3.3-2.3c2.1-3.2,3.3-6.9,6.2-9.5c6.1-6.6,14.4-10.2,20.9-16.4c2.3-2.2,5.4-3.9,8-6.2
		C995.3,164.5,997.6,165.4,998.9,168.6z"/>
	<path class="st6" d="M942.7,224c2.8-4.9,8.8-6.3,11.7-11.1c0.3,0.7,0.6,1.4,1.3,3c0-4.8,2.4-6.3,6.1-7.2c1.8-0.4,3-2.7,4.6-3.9
		c4.7-3.8,8.8-8.6,15.5-8.6c0.4,0,0.8,0.5,1.2,0.8c-7.4,13.4-14.8,26.9-22.4,40.3c-3.1,5.5-7.4,5.5-10.6,0.2
		C947.4,233.1,945.2,228.5,942.7,224z"/>
	<path class="st7" d="M881.6,116.9c9.9-4.4,17.1-12.7,26.6-17.8c2.6-1.4,6.7-1.1,6.6-6.1c0-1.6,5,1.1,3.8-3.3
		c2.2,0.7,1.5,2.8,2.8,3.5c0.5-1,0.9-1.8,1.4-2.7c0.6,0.2,1,0.6,1.4,1.1c1.4,2.7,0.9,5.6,0.4,8.4c-0.2,2.1-0.5,4.1-0.7,6.2
		c-0.9,5.7-4.7,8.6-10.1,9.8c-0.5,0.1-1,0.1-1.3,0.5c-5.5,6.5-14,8.3-20.5,13.4c-0.8,0.6-1.7,1-2.8,0.6
		C886.4,126.1,883.7,121.7,881.6,116.9z"/>
	<path class="st8" d="M921.8,63c-4.3,1.8-8.2,4.4-11.4,7.6c-4.9,4.9-11,8.5-16.7,12c-3.8,2.3-6.1,5.9-9.5,7.8
		c-4.4,2.5-8,6.9-13.6,7.3c-2.3-2.3-3.4-5.2-4.7-8.1c-0.4-4.8,2.8-7.6,6.3-9.2c4.5-2.1,7.8-5.5,11.4-8.7c5.3-4.7,11.9-7.6,18-11.1
		c0.4-0.2,0.8-0.6,1.1-0.9C909.2,60.8,915.5,61.9,921.8,63z"/>
	<path class="st9" d="M1053,71.9c-4.8,8.6-9.6,17.1-14.3,25.7c-1.9,0.4-3.3,1.6-4.5,2.9c-6.9,7.1-14.3,13.5-23.3,18
		c-2.4,1.2-3.9,3.6-5.7,5.5c-2.9,3.2-4.5,3-7.5-0.4c-0.8-2.5,1-4.2,1.9-6.3c1.7-4.2,3.5-8.5,6.1-12.3c0.7-1,1.3-2.1,2.3-2.8
		c6.7-5.8,13.2-12.3,20.9-16.6c7.2-4,12.6-9.9,19.5-14C1050.9,70,1051.4,70.1,1053,71.9z"/>
	<path class="st10" d="M903,154.6c-1.9-3.3-3.9-6.7-5.8-10c0-6.2,1.3-7.7,8.8-10.2c0.9-0.3,2.5-0.2,2.7-0.9
		c2.3-7,10.1-6.6,14.5-10.8c6.6-2.4,13.3-3.8,20.2-4.9c5.4-0.8,7.4,2.3,5.9,8.6c-0.2,1.1-0.6,2-1.7,2.5c-2.4-1.2-4.3-1-6.6,0.7
		c-5,3.8-9.3,8.5-14.4,12.1c-6.6,4.7-13.4,9.1-20.5,13C905.1,155.1,904.1,155.6,903,154.6z"/>
	<path class="st11" d="M1053,71.9c-3.2,2.3-8.1,2.5-9.4,7.2c-5.6-0.6-5.9,8.9-12.6,6.6c-2.6-0.9-1.1,2.4-2.8,3.5
		c-5.3,3.4-11.6,5.9-14.3,12.3c-2.7-2.2-2.9,3-5.3,1.8c-2-4.2,1.2-7.2,2.6-10.6c2.9-3.3,3.1-8.2,6.5-11.4c3.7-1.5,6.1-5,9-7.4
		c4.3-3.6,8.9-7,13.5-9.8c6.4-4,11.7-10.3,19.8-11.5c2,1.9,1.8,4.1,0.6,6.3C1058,63.4,1055.5,67.6,1053,71.9z"/>
	<path class="st12" d="M998.7,123.2c1.8,2.5,4.2,2.2,5-0.3c1.5-5,5.9-5.6,9.5-7.7c3.6-2.1,7.5-4.3,9.8-8.1c0.4-0.7,1-1.8,1.6-1.8
		c4.7,0,5.8-3.9,7.9-6.8c1.6-2.2,3.8-2.9,6.2-0.9c-4.2,8.3-8.6,16.4-13.7,24.2c-3.7,3-8.2,4.9-11.3,8.6c-3.7,4.3-9.4,5.6-13.7,9
		c-1.5,1.2-2.5,2.5-3.7,3.9c-2.4,2.8-5.1,5.1-8.9,2.2c-1.7-4.3,1.8-7.1,3.2-10.4c1.4-2.7,2.2-5.8,3.9-8.4
		C995.5,125,996.3,123.2,998.7,123.2z"/>
	<path class="st13" d="M998.9,168.6c-2.7-2.1-5-1.7-6.5,1.4c-1.1,2.3-1.8,4.9-5.3,3.3c-0.3-0.1-1.3,0.2-1.3,0.4
		c-0.5,6.7-9,5.3-10.7,10.7c-5.2-0.9-6.1,5.2-10.2,6.2c-1.2-1.1-1.2-2.5-0.6-3.7c3.5-6.9,6.1-14.4,11.3-20.4
		c5.2-7,14.3-8.5,20.2-14.3c3.9-3.9,9-6.5,11.9-11.4c0.9-1.6,2.6-2.7,4.6-2.4c1.8,0.3,2.1,1.7,1.7,3.4
		C1009.3,150.9,1004.3,159.9,998.9,168.6z"/>
	<path class="st14" d="M903,154.6c3.1-3.7,8-4.5,11.7-7.4c5.6-4.5,12.3-7.4,17.3-13.1c2.8-3.3,6.7-6.3,10.6-8.7
		c3.3-2.1,4.8,0,4.4,3.5c3.1,3.5,1.2,6.7-0.5,9.9c-1.5,0.9-2.9,1.7-4,3.4c-2.4,3.7-5.6,6.5-9.9,8c-4.7,1.6-8,5.4-11.5,8.6
		c-2.7,2.4-5.9,3.7-8.8,5.6c-1.6,1-2.8,0.3-4-0.7C906.1,160.7,904.3,157.8,903,154.6z"/>
	<path class="st15" d="M1013.9,141.7c-2.6-4.6-4.8-0.2-5.3,1c-1.2,2.8-1.2,6-5.6,4.8c-0.3-0.1-1,0.4-1.1,0.8
		c-2.5,5.8-7.6,8.4-13,10.7c-1.3,0.5-3,0.4-2.6,2.6c0.1,0.3-0.2,0.6-0.3,0.9c-5.3-2.4-5.7,4.5-9.5,4.9c-0.5-0.6-0.7-1.3-0.6-2.1
		c2.5-5.2,4.3-10.8,7.1-15.9c1-1.9,1.9-4,4.5-4c6.1,0.9,7.6-5.3,11.6-7.8c6.3-4,13.2-7.4,17.9-13.6c3.6,2.4,4-6.3,8-2.3
		C1021.8,128.7,1018,135.3,1013.9,141.7z"/>
	<path class="st16" d="M923,124.4c-1.9,2.5-4.1,4.4-7.6,3.5c-0.1,2.1-2.8,2.3-3.2,4.6c-0.5,3.3-3.1,4.5-6.3,3.9
		c-0.2,0-0.5-0.1-0.7-0.2c-0.1,0.5-0.1,1.4-0.3,1.4c-1.4,0.1-1.6,4-3.9,1.1c-0.8-0.9-1.4,0.1-1.5,1c-0.3,1.9-1.2,3.4-2.2,4.9
		c-2.7-4.7-5.3-9.3-8-14c0.9-2.4,2.8-3.7,5.2-4.4c3.2-0.9,4.3-4.8,7.9-5.4c1-0.2,1.7-1.3,3.4-1.1c2.1,0.3,4.4-1.1,4.7-3.2
		c0.7-4.7,2.9-3,5.9-0.7c-1.7-6,6.6-4,5.6-9.1c2.6,1.4,2.1,3.9,2.2,6.2C923,116.6,924.4,120.6,923,124.4z"/>
	<path class="st12" d="M924.8,192.8c-2.4-3.2-4.2-6.7-5.8-10.3c5.8-7.3,13.8-12,21.6-16.7c1.6-1,2.7-2.4,3.9-3.7
		c1.1-1.2,2.3-2.4,3.7-3.2c3.1-1.9,7-2.9,7.7-7.2c6-1.6,8.6,0.7,7.3,6.6c-0.2,1-0.5,1.9-0.6,2.9c-0.2,2.5-0.4,5-2,7.1
		c-5.8,4.4-11.5,8.8-17.1,13.5c-4.9,4-10.3,7.7-15.8,10.9C926.9,193.1,925.8,192.8,924.8,192.8z"/>
	<path class="st14" d="M1059.8,52.8c-3.3,3.2-8.2,5.1-10.7,8.3c-2.7,3.4-8.5,1.2-9,6.5c-1.1-0.2-1.3,1-1.9,1.2
		c-3.7,1.3-6,4.5-8.8,6.5c-3.3,2.4-6.6,5.4-10.4,7.3c-2.3-2.1-5.4-1.6-8.1-2.2c-4-2.7-4.1-3.8-0.9-6.5c2.5-2.2,5.1-4.1,6.8-7.1
		c1-1.8,3-2.9,4.9-3.1c4.3-0.5,7.4-2.5,9.8-6c1-1.6,3.5-1.1,4.3-3.1c6.3-1.3,12.6-2.6,18.9-3.8C1056.7,50.4,1058.6,50.8,1059.8,52.8
		z"/>
	<path class="st17" d="M1035.7,54.5c0.8,0.1,1.9-0.1,2.1,0.9c0.2,1-0.5,2-1.5,2.2c-2.6,0.5-5.4,0.3-4.5,4.6c0.1,0.4-3.8,2.4-6,2.7
		c-4,0.5-7.2,1-8.9,5.4c-1,2.6-4.8,3.4-6.3,6.1c-0.2,0.5-1.5-1.6-1.5,0.3c0,1.2,1,1.6,2,1.9c-0.1,2.7-2.4,3-4.2,3.5
		c-2.9,0.8-5.8,1.4-8.8,1.9c-7.7-0.6-9.1-2.4-7.4-9.3c1.8-2.5,4-4.8,5.8-7.3c3.9-5.7,10.6-6.4,16.4-8.9
		C1020.5,57,1028,55.2,1035.7,54.5z"/>
	<path class="st18" d="M678.9,265.7c-4.4,1.3-7.2,0.4-9.2-3.3c-1.9-3.5-4.4-6.6-6.8-9.8c-0.7-0.9-0.9-2.9-2.8-2.1
		c-1.6,0.7-2.8,1.8-2.7,3.8c0,3-0.1,6,0,9c0,2-0.7,3-2.9,3c-2.3,0-3.3-0.8-3.3-3.2c0.1-10.2,0.1-20.3,0-30.5c0-1.9,0.4-3.2,2.7-3.1
		c2.2,0,3.5,0.5,3.4,3c-0.1,4.3,0,8.6,0,14.5c4.6-5.5,8.4-9.7,11.9-14.2c2.3-3,4.9-4,9.1-2.6c-3.5,4.1-6.5,8.3-10.1,11.8
		c-2.9,2.8-2.4,4.8-0.3,7.6C671.6,254.7,675,260,678.9,265.7z"/>
	<path class="st19" d="M902.9,59.6c0.2,4.8-3.9,5.4-6.9,6.3c-1,0.3-2.3,1-2.5,1.3c-3.6,4.5-10.6,5-12.8,11.1
		c-0.6,1.8-3.2,1.9-4.3,2.3c-4.8,1.7-7.3,5.4-10.3,8.9c-2.5-3.4-4.6-7-6.3-10.9c0.1-2.2,2.1-2.7,3.4-3.9c6.7-6,15-9.9,21.7-15.9
		c2.2-2,4.8-0.3,7.1-1.1C895.5,58.3,899.2,59,902.9,59.6z"/>
	<path class="st11" d="M908.1,163.5c5.6-1.5,10-5,14.2-8.7c3.2-2.8,5.9-5.9,10.6-7.1c3.5-0.9,6.9-4.1,8.4-8.2
		c0.8-2.2,1.7-3.5,3.6-0.8c1.4,0.9,1.5,2.2,1.3,3.7c-0.8,4.1-0.4,8.5-3.1,12.2c-7.6,6.2-14.7,13-23,18.3c-1.7,1.1-3.3,2.1-5.3,2.5
		C912.4,171.6,910,167.7,908.1,163.5z"/>
	<path class="st20" d="M484,247.8c0-4.8,0-9.6,0-14.5c0-2.3,0.6-3.8,3.3-3.8c4.8,0.1,9.6,0,14.5,0c1.7,0,3,0.4,3,2.4
		c0,2-1.1,2.6-2.9,2.6c-2.5,0-5,0.2-7.5,0c-4.2-0.4-4.5,1.9-4.5,5.2c0,3.1,0.5,5.2,4.3,4.8c2.3-0.2,4.6,0,7,0c1.5,0,2.5,0.6,2.6,2.3
		c0.1,2-0.9,2.7-2.7,2.7c-1.3,0-2.7,0-4,0c-6.8,0-8.9,2.8-7,9.4c0.5,1.9,1.8,2.2,3.4,2.2c2.8,0.1,5.7,0,8.5,0.1
		c1.4,0,2.7,0.3,2.7,2.1c0.1,1.9-0.9,2.8-2.7,2.8c-5,0.1-10,0-15,0c-2.4,0-3.1-1.5-3-3.6C484.1,257.7,484,252.8,484,247.8z"/>
	<path class="st21" d="M1004.7,32.7c-5.1,3.4-11.1,3-16.8,3.8c-8.4,1.3-16.9,2.2-25.4,3.3c-5.7,0.7-11.3,1.5-16.9,2.4
		c-6.6,1.1-13.1,2.3-19.6,3.4c-0.6-2.8,0.8-3.8,3.4-4.3c23.8-4.6,47.5-9.4,71.3-14C1005,26.5,1006.1,28.2,1004.7,32.7z"/>
	<path class="st9" d="M914.9,175.4c0-5,5.1-4.4,7.6-6.5c4.1-3.4,8.7-6.4,12.3-10.4c2.1-2.2,4.1-4.3,7.4-4.2
		c4.5-0.5,8.8-3.8,13.6-1.1c1.5,5.8-4.5,5.3-6.9,7.8c-0.2,0.2-1.2,0.9-1.5,1.5c-2.3,5-9.2,4.6-11.1,9.9c-4.2-0.9-5.9,2.9-8.8,4.6
		c-1.2,0.7-2.2,1.3-2.8,3c-0.8,2.1-3,3.5-5.7,2.5C917.1,180.5,916,178,914.9,175.4z"/>
	<path class="st15" d="M924.8,192.8c5.8-3.6,10.3-9.3,16.8-11.8c2.3-0.9,0.5-3.8,3.6-4.7c5.3-1.5,8.5-7.1,14.1-8.7
		c3.1,5.4,0.8,10.2-2,14.8c-2.3-0.5-1.4,2-2.3,2.7c-5,3.3-7,9.9-13.7,11.6c-3.9,0.9-6.2,5.5-10.3,6.6
		C928.4,200.2,926.5,196.6,924.8,192.8z"/>
	<path class="st20" d="M450.1,258.6c2.9-8.8,5.5-16.4,8.1-24.1c0.4-1.1,0.7-2.2,1.2-3.3c1-2.2,3.1-1.9,4.8-1.5
		c2.5,0.6,1,2.5,0.6,3.6c-3.4,9.9-6.9,19.7-10.4,29.6c-0.7,2.1-1.7,3.4-4.2,3.4c-2.5,0-3.5-1.2-4.3-3.3c-3.4-9.7-6.8-19.4-10.2-29.2
		c-0.5-1.4-1.9-3.3,0.7-4.1c2.3-0.7,4.1-0.1,5,2.6c2.4,7.8,5.1,15.5,7.6,23.2C449.2,256.2,449.4,256.8,450.1,258.6z"/>
	<path class="st20" d="M609.7,247.6c0-4.8,0.1-9.7,0-14.5c0-2.5,1-3.6,3.6-3.6c4.5,0.1,9,0,13.5,0c1.8,0,3.3,0.4,3.2,2.7
		c-0.1,2.1-1.6,2.3-3.1,2.3c-2,0-4,0.2-6,0c-4.4-0.5-6,1.3-5.7,5.6c0.2,3.1,0.9,4.7,4.3,4.4c2-0.2,4-0.1,6,0c1.7,0,3.5-0.2,3.6,2.3
		c0.1,2.8-1.9,2.6-3.8,2.7c-1.3,0-2.7,0.2-4,0c-5-0.7-6.2,1.6-6.2,6.2c0,4.5,1.6,6,5.9,5.6c2.1-0.2,4.3,0,6.5,0
		c1.5,0,2.5,0.7,2.5,2.4c0,1.7-0.8,2.5-2.4,2.5c-5,0-10,0-15,0c-2.5,0-2.9-1.7-2.9-3.7C609.7,257.6,609.7,252.6,609.7,247.6z"/>
	<path class="st20" d="M404.6,266.6c-2.7,0.1-5.3-0.1-7.8-1.3c-1.9-0.9-1.9-2.6-1.5-4.3c0.6-2.1,2.1-1,3.3-0.6
		c2.9,0.9,5.8,1.3,8.8,1.1c2.6-0.2,4.5-1.4,5.2-3.9c0.7-2.5-0.9-4.2-2.8-5.3c-2.4-1.4-5.1-2.3-7.6-3.7c-5.2-2.8-7.6-7.4-6-12.4
		c1.6-5,5.6-6.8,10.5-6.8c2.5,0,5,0.2,7.4,0.7c1.6,0.3,4,0.4,3.2,3.3c-0.7,2.6-2.3,2.2-4.3,1.8c-2.1-0.4-4.3-0.6-6.4-0.6
		c-2.2,0-3.9,1-4.5,3.2c-0.6,2.4,0.3,4.3,2.4,5.5c2.3,1.3,4.8,2.4,7.1,3.6c5.8,2.9,7.7,6.2,6.8,11.3c-0.9,5-4.8,8.1-10.8,8.5
		C406.6,266.6,405.5,266.6,404.6,266.6z"/>
	<path class="st22" d="M789.9,103.8c2.1-4.2,0.5-8.6,0.9-12.9c0.3-3.1,0.2-6.2,0.3-9.3c7.6-1.2,8.4-0.7,8.2,6.5
		c-0.3,14,0,28.1-0.3,42.1c-0.1,2.4-0.1,4.7-2.1,6.3c-4.6,1-6.7-0.4-6.1-5.5c0.4-3.6-0.2-7.3,0.2-10.9c0.5-4.7-0.8-7.2-6-6.6
		C782.9,107.8,784.6,104.5,789.9,103.8z"/>
	<path class="st23" d="M891.9,57.7c-4.3,1.2-7.2,4.9-10.8,6.9c-6.3,3.4-11.4,8.1-16.9,12.4c-1.2,1-3.3,0.2-4.5,1.6
		c-2.3-3.2-4.2-6.5-5.7-10.1c0-1.7,1.2-2.6,2.3-3.6c3.5-3.1,7.8-5.4,11.2-8.7c2.1-2,4.9-1.2,7.4-1.6
		C880.5,55.7,886.2,56.7,891.9,57.7z"/>
	<path class="st24" d="M930.9,203.4c1.2-3.8,8.8-9.4,13-9.6c1.2,0,2.4-0.7,2.4-1.3c-0.2-6.3,7.8-6,9-11.2c0-0.2,0.4,1.2,0.8,1.7
		c0.5,0.4,1.2,0.9,1.2,1.5c0.2,6.3-0.6,12.4-3.9,17.9c-0.3,0.4-0.9,0.4-1.4,0.5c-0.3-1.1,0.2-2.3-1-3.4c-0.7,5.2-5.5,6.4-8.7,9
		c-2,1.6-4.6,2.6-5.5,5.3C934.6,210.5,932.4,207.2,930.9,203.4z"/>
	<path class="st20" d="M573.8,250.6c0-3.7-0.2-7.3,0.1-11c0.3-4.1-1.4-5.4-5.2-5c-1.1,0.1-2.3,0-3.5-0.1c-1.7-0.1-2.2-1.2-2.2-2.7
		c0-1.4,0.7-2.3,2.1-2.3c7.6,0,15.3,0,22.9,0c1.7,0,2.4,1,2.4,2.5c0.1,2-1.2,2.3-2.9,2.5c-7.8,0.9-7.8,1-7.8,8.7c0,6.3,0,12.6,0,19
		c0,2.2-0.4,4-3.2,3.9c-2.7,0-2.8-1.8-2.7-3.7C573.9,258.6,573.9,254.6,573.8,250.6z"/>
	<path class="st18" d="M733,250.5c0-2.2,0-4.3,0-6.5c-0.1-2.8,0.7-6.1-0.6-8.3c-1.4-2.3-4.9-0.6-7.5-0.9c-1.8-0.2-2.7-0.7-2.7-2.7
		c0.1-1.9,1-2.5,2.9-2.5c7.3,0.1,14.6,0,21.9,0c1.8,0,2.8,0.4,2.8,2.5c0,2-0.9,2.4-2.7,2.7c-8.1,1.1-8.1,1.2-8.1,9.3
		c0,6.3-0.1,12.6,0,18.9c0,2.2-0.4,3.4-3,3.4c-2.5-0.1-3.1-1.2-3.1-3.4C733,258.8,733,254.6,733,250.5z"/>
	<path class="st25" d="M532,245.2c0,4,0.1,8,0,12c-0.1,3,1.1,4.2,4.1,4.2c3-0.1,6,0,9,0c1.5,0,2.5,0.7,2.5,2.4
		c0,1.6-0.9,2.5-2.4,2.5c-5.5,0-11,0-16.4,0c-2.2,0-2.7-1.6-2.7-3.4c0-10,0-19.9,0-29.9c0-2.2,0.7-3.4,3.1-3.4
		c2.7,0,2.8,1.8,2.8,3.7C532,237.3,532,241.3,532,245.2C532,245.2,532,245.2,532,245.2z"/>
	<path class="st26" d="M874.9,54.6c-6,2.9-11.5,6.3-15.7,11.6c-1.1,1.4-3.8,0.7-5.2,2.3c-1.9-3.1-3.7-6.2-5.6-9.2
		c-1.4-2.2-1.5-4.3,0.1-6.4c1.5-2.1,3.5-2.7,6.1-2.2C861.3,52.1,868.1,53.3,874.9,54.6z"/>
	<path class="st27" d="M355.6,113.5c-2.5,0.1-3.7,1.1-3.5,3.9c0.3,5.1-0.1,10.2,0.1,15.3c0.2,3.4-1.1,4.5-4.3,3.7
		c-1.4-1.1-2-2.5-2-4.3C346,115,345.7,98,346,80.9c4.6-0.9,6.8,0.3,6.2,5.7c-0.5,4.4,0.1,8.9-0.2,13.3c-0.2,3.2,1.1,4.1,3.9,4
		c0.3,0.3,0.7,0.6,1,1C358.2,107.9,358.9,111,355.6,113.5z"/>
	<path class="st28" d="M796.9,136.4c0.1-10.7,0-21.5,0.3-32.2c0.1-5.2-0.1-10.4,0.3-15.7c0.5-6-0.7-6.9-6.5-6.9
		c2.7-2,5.7-0.7,8.5-0.7c2,0,1.3,2,1.4,3.2c0.1,4.8,0.4,9.6,0,14.4c-0.4,4.6,1.3,6,5.5,5.3c1.1-0.2,2.3,0.1,3.5,0.1
		c0.1,0.5,0,1.2-0.4,1.3c-3.4,0.8-3.7,2.8-2.6,5.7c0.3,0.9,0.6,1.9,0,2.8c-4.9-0.5-6.6,1.7-6,6.6c0.5,4.3-0.1,8.6,0.2,12.9
		C801.2,136.4,799.7,137,796.9,136.4z"/>
	<path class="st29" d="M346,80.9c2.3,1.6,1.9,4.1,1.9,6.3c0,16.4,0,32.8,0,49.2c-1.3,0-2.7,0-4,0c-1-1.1-1-2.4-1-3.7
		c-0.2-15.9-0.3-31.8,0-47.7c0-1.7,0-3.4,1.9-4.2C345.2,80.9,345.6,80.9,346,80.9z"/>
	<path class="st18" d="M703.3,247.9c0,5,0,10,0,14.9c0,2-0.2,3.5-2.9,3.6c-2.6,0-3-1.4-3-3.5c0-9.9,0-19.9,0-29.8
		c0-2,0.2-3.5,2.9-3.5c2.6,0,3,1.3,3,3.4C703.3,237.9,703.3,242.9,703.3,247.9z"/>
	<path class="st30" d="M789.9,103.8c-1.3,1-3.9,0.5-2.9,3.9c0.5,1.6-1.3,3.9-2,5.8c-3.7,0-7.3,0-11,0c-1.3-1.6-0.1-3.8-1.4-5.3
		c-0.1-0.4-0.2-0.8-0.3-1.2c-0.2-1-1-2-0.3-3.1C778,103.9,783.9,103.8,789.9,103.8z"/>
	<path class="st31" d="M344.8,80.9c-1,1.8-0.9,3.8-0.9,5.8c0,16.6,0,33.2,0,49.8c-2.6,0.2-1.8-1.8-1.8-3.1c-0.1-5.1,0-10.2-0.1-15.4
		c0-1.6,0.6-3.4-1.2-4.5c-2.2-2.5-2.6-5.2-1.1-8.2c0.5-0.8,1.3-1.2,2-1.6c0.1-6.6,0.2-13.2,0.3-19.8C342.1,82,342,80.1,344.8,80.9z"
		/>
	<path class="st32" d="M1012.9,58.6c-1.4,3.2-6.4,2.8-7,6.9c0,0.1-0.3,0.3-0.4,0.2c-8.1-2.7-8.3,6-12.5,8.8c-2-2.3-1.4-4.2,1-5.7
		c0.9-2.5,1.9-5.1,2.8-7.6C1002.2,60.4,1007.6,59.5,1012.9,58.6z"/>
	<path class="st33" d="M806.9,113.5c-2.5-1.6-2.4-4.6-2.6-6.8c-0.3-3.9,4.1-1.1,5.5-3c2,0,4,0,6.1,0c1.5,2.3,1.2,5.1-1.1,9.7
		C812.2,113.5,809.6,113.5,806.9,113.5z"/>
	<path class="st34" d="M814.8,113.5c-1.3-3.4-0.5-6.6,1.1-9.7c0.7,0,1.3-0.1,2-0.1c4.9-0.1,7.8,4.7,5.4,9c-0.7,1.3-2,1-3,1
		C818.5,113.7,816.7,113.6,814.8,113.5z"/>
	<path class="st35" d="M341.7,103.7c-0.3,0.3-0.7,0.6-1,0.9c-1.2,1.6-2.8,2.1-4.7,1.7c-2.5-0.3-4.6,1.2-7,1.5
		c-0.3,0.1-0.6,0.2-0.8,0.4c-0.1,0.3-0.2,0.6-0.2,0.9c0.2,0.7,0.2,1.5,0,2.2c-1.7,3.1-4.9,0.9-7.1,2.2c-2.3-2.5-0.9-5.6-0.9-8.3
		c0-2.2,2.2-1.4,3.5-1.5C329.6,103.6,335.7,103.7,341.7,103.7z"/>
	<path class="st36" d="M356.1,104.6c-0.1-0.3-0.1-0.5-0.1-0.8c4.5,0,9,0.3,13.4-0.2c5.5-0.7,5.6,2.2,5.6,6.4c0,5.3-3.2,3.7-6,3.5
		c-1.6-3.1-2.3-7.2-7.1-7.1C359.6,106.6,357.5,106.6,356.1,104.6z"/>
	<path class="st37" d="M326.9,106.6c2.7-0.7,5.1-2.2,8.1-1.9c2.5,2.4,4.1,5.2,3.9,8.8c-3.3,0-6.6,0-10,0c-0.9-0.7-1.4-1.7-1.5-2.9
		C327.3,109.3,326.9,108,326.9,106.6z"/>
	<path class="st38" d="M362.9,104.7c6,0,7.9,2.8,6,8.8c-1.7,0-3.3,0-5,0C358.8,110.1,358.5,107.2,362.9,104.7z"/>
	<path class="st39" d="M362.9,104.7c-2.8,3.3-0.1,6,1,8.8c-2.8,0-5.5,0-8.3,0c0.5-3-0.8-6,0.5-8.9
		C358.3,104.6,360.6,104.6,362.9,104.7z"/>
	<path class="st40" d="M338.9,113.5c-3.5-2-3.5-5.5-3.9-8.8c1.9,0,3.8-0.1,5.7-0.1c0,3,0.1,5.9,0.1,8.9
		C340.2,113.5,339.5,113.5,338.9,113.5z"/>
	<path class="st41" d="M772,103.9c0.9,0.7,1.9,1.3,1.9,2.7c-1.3,1-1.5,2.3-0.6,3.7c0.6,1.5-0.1,2.5-1.4,3.2c-5.1,0.9-3.1-3-3.3-5.1
		C768.5,106.2,767.6,102.9,772,103.9z"/>
	<path class="st42" d="M771.9,113.5c0.4-1,1.1-2,0-2.9c-0.7-2,0.5-2.7,2.1-3c2.6,2,0.4,4,0,6C773.3,113.5,772.6,113.5,771.9,113.5z"
		/>
	<path class="st43" d="M327.9,110.6c0.3,1,0.7,2,1,2.9c-2.7,0-5.4,0-8.1,0c1.6-1.8,4.9-0.1,6.1-2.8
		C327.2,110.1,327.5,110.1,327.9,110.6z"/>
	<path class="st44" d="M625.3,66.9c-5.8-3.9-11.7-7.5-18.4-9.6c-1.9-0.6-1.8-1.9-2-3.4c-1.2-8.5-9-12.4-16.2-7.9
		c-14.5,9-28.9,18.3-43.3,27.5c-4.6,2.9-5.5,8.4-2.6,13.1c3,4.8,9.7,6,15,2.6c5.2-3.3,10.3-6.7,15.5-10c11.2-6.9,22.8-7.1,34.2-1
		c11.5,6.2,18.1,16.3,18.3,29.4c0.1,12.7-6.7,21.7-17.5,28.2c-13.5,8.2-26.7,16.9-40,25.4c-12.7,8.2-28.5,7-41.2-3.3
		c-10.6-8.5-14.4-23.8-9.1-37c5.9,4.1,11.9,7.7,18.7,9.8c1.9,0.6,1.8,1.9,2,3.5c1.1,8.2,8.8,12.3,15.8,8c14.7-9,29.3-18.4,43.8-27.7
		c4-2.6,5.1-7.5,3.1-12c-1.8-4-6.6-6.3-11.3-5.4c-5.2,1.1-8.9,5-13.4,7.5c-3.1,1.7-5.8,4-8.9,5.5c-12.9,6.2-25.4,5.1-36.6-3.6
		c-10.4-7.9-15.2-18.8-13-32c1.2-7.4,4.7-14.2,11.1-18.3c16.9-11.2,33.6-22.7,51.5-32.4c10.8-5.9,27.7-2.1,37.3,7.6
		C627.6,41.1,630.7,55.9,625.3,66.9z"/>
	<path class="st45" d="M49.9,116.5c31.1-0.1,62.2-0.1,93.3-0.2c19.3,0,38.6,0.1,57.8,0.2c1,3.7-2.2,5-4.3,6.5
		c-13.4,9.7-27.9,17.5-43.3,23.6c-16.9,6.7-34.4,10.3-52.6,9.9c-2-0.2-3.2-1.5-4.1-3.1c-1.8-2.7-4.7-5-2.5-8.8c1-1.3,4.3-1,2.9-3.6
		c-1-2-3-0.4-4.5,0c-8.4,2.1-17,3.1-25.7,2.6c-9.7-4.4-14.2-13-17.6-22.4C48.6,119.5,48.6,117.9,49.9,116.5z"/>
	<path class="st46" d="M205,96.7c7.3-1,14.2-3.1,20.7-6.8c2.7-1.6,3.5-2.7,1.2-5.9c-7.1-9.9-6.7-20.7-2.2-31.6c1.2-3,2.6-3,5.1-0.8
		c7.6,6.8,11.2,15.3,12.1,25.2c1.4,2.4-0.1,4.1-1.5,5.8c-6.2,8.1-13.7,14.9-21,21.9c-2.7,2.6-6.5,3.8-9.5,6.2
		c-15.9,4.9-31.5,4.3-46.3-3.5c-1.7-0.9-2.3-0.9-3.8,0.1c-12.5,8.6-30.5,8.5-43.3,0c-0.7-0.5-1.4-1.9-2.4-1
		c-5.8,5.4-13.4,5.3-20.4,7.1c-6.2,1.7-12.4,1.7-18.6,0c-4.5-1.4-9.4-1.9-13.2-5.2c-1.4-1.2-2.4,0.1-3.5,0.7c-3,1.4-6,2.9-9.4,2.8
		c-4.1-3.5-4.5-9.5-1.1-14.3c2-0.5,4-0.2,6-0.2c48.6,0,97.2,0,145.8,0C201.4,97.1,203.2,97.4,205,96.7z"/>
	<path class="st47" d="M100.8,155.7c1-2.3,3.1-1.5,4.8-1.6c36.1-0.8,66.6-15.8,94.7-36.8c0.3-0.2,0.4-0.5,0.6-0.8
		c6.2,0,12.3-0.1,18.5-0.1c1.3,0,3-0.5,3.8,0.7c1.1,1.6-0.6,2.7-1.4,3.9c-15.8,22.6-37.3,37.1-63.6,44.7c-12.4,3.6-25,5.2-37.9,5.8
		c-7.4-0.9-12.9-5-17.6-10.4C101.4,159.4,99.9,158,100.8,155.7z"/>
	<path class="st48" d="M209.9,110.7c7.4-7.3,15-14.6,22.3-22c3.6-3.7,7.1-7.5,9.6-12c8.6-3.8,17.3-4.2,26.3-1.3
		c3.5,1.2,4.1,2.7,1.7,5.6c-6.6,8.2-15.4,11.6-25.5,11.3c-6-0.2-9.2,1.6-10.7,7.3c-0.7,2.7-2.5,5.1-3.5,7.7
		c-1.5,3.8-3.9,5.6-7.6,3.3C218.2,108,214.1,108,209.9,110.7z"/>
	<path class="st49" d="M100.8,155.7c5.1,7,12.4,11.2,19.5,15.7c-24.5,1.1-46.9-4.2-65-22c-0.3-0.3-0.6-0.7-1.6-1.9
		c7.5,0,14.3,0,21.2,0c7.8,1.2,15.6,2.6,23.1,5C98.9,153.5,99.9,154.6,100.8,155.7z"/>
	<path class="st47" d="M49.9,116.5c2.9,8.8,6.6,17.1,14.1,23.2c1.2,1,2.6,2.1,2.9,3.9c-16.6,1.2-19-0.3-24.8-15.7
		c-0.1-0.2-0.1-0.3-0.2-0.5C37.9,113.7,38.2,116.5,49.9,116.5z"/>
	<path class="st50" d="M131.9,72.1c-0.1,5.8-0.3,11.6-0.2,17.5c0,3-0.9,4.2-4,4.1c-4.8-0.2-9.7-0.1-14.5,0c-2.6,0.1-3.6-0.9-3.5-3.5
		c0.1-6.2,0.2-12.3,0.2-18.5C117.2,71,124.6,70.2,131.9,72.1z"/>
	<path class="st51" d="M81.8,83c0,10.6,0,10.6-10.4,10.6C60,93.6,60,93.6,60,82c0-10.3,0-10.3,10.2-10.3c0.2,0,0.3,0,0.5,0
		C81.8,71.7,81.8,71.7,81.8,83z"/>
	<path class="st52" d="M156.7,48.3c-1.2,5.2-0.5,10.6-0.5,15.8c0,3.3-0.8,4.9-4.4,4.7c-4.5-0.2-8.9-0.1-13.4,0
		c-2.8,0.1-3.8-1.1-3.8-3.8c0.1-4.8,0-9.6,0.1-14.4c0-1.4-0.3-3.5,1.8-3.5c6.7,0,13.5-1.3,20.1,0.8L156.7,48.3z"/>
	<path class="st53" d="M181.7,73.3c-1.3,6.4,0,12.9-0.8,19.3c-1.1,0.8-2,0.3-2.8-0.4c-1.8-4.3,0.1-8.9-1.1-13.3c0,0.1-0.4,0-0.4,0.1
		c-1,4.4,0.7,8.9-1,13.2c-1.1,0.9-2.1,1.1-3.3,0.1c-1.1-3-0.2-6.2-0.5-8.9c-0.2,2.6,0.3,5.6-0.3,8.5c-0.9,1.1-1.8,1.5-3,0.3
		c0.3-3.4,0.2-6.8,0.2-9.7c-0.3,2.9,0.6,6.3-0.6,9.6c-1,1.3-2.1,0.9-3.2,0.1c-1.7-4.2,0.1-8.8-1.1-13c0,0.1-0.4,0-0.3,0.1
		c-1.1,4.3,0.9,8.9-1.2,13c-1,0.6-2,1.1-3-0.1c-0.1-6.9-0.3-13.7,0.1-20.5c7.2-1.1,14.5-1,21.7,0C181.8,72.1,182,72.6,181.7,73.3z"
		/>
	<path class="st54" d="M85,48.6c0.2-2,1.8-1.7,3-1.7c5,0,10,0,15,0c2.7,0,4,0.9,3.9,3.8c-0.1,4.7-0.1,9.3,0,14
		c0.1,2.9-0.9,4.3-4,4.2c-5.7-0.2-11.3-0.1-17-0.2c-0.8-0.9-0.3-1.7,0-2.5c2.5-4.9,1.6-9.9,0.8-15c-0.2-0.4-0.4-0.7-0.6-1.1
		C85.8,49.5,85.4,49,85,48.6z"/>
	<path class="st55" d="M130.9,68.4c-6,0.1-12,0.2-17.9,0.4c-2.3,0.1-3.3-0.9-3.2-3.2c0.2-6,0.2-12,0.3-17.9c7-0.9,14-0.7,21-0.1l0,0
		C131.7,54.5,131.8,61.4,130.9,68.4z"/>
	<path class="st56" d="M205,96.7c-2.3,1.2-4.9,0.8-7.3,0.8c-47.6,0-95.2,0-142.7,0c-2.3,0-4.7,0.1-7,0.2c-2.9,2.5-6.3,2.6-9.8,1.9
		c-0.3-4.1,2.8-3,4.8-3c22.6-0.1,45.2-0.1,67.8-0.1C142.2,96.6,173.6,96.7,205,96.7z"/>
	<path class="st57" d="M38.1,99.7c2.6-3.8,6.5-1.4,9.8-1.9c-0.1,4.7-0.2,9.3,1,13.9c-10,2.8-10.9,2.1-10.9-8
		C38.1,102.3,38.1,101,38.1,99.7z"/>
	<path class="st58" d="M145.9,22.3c10.4,0,10.4,0,10.4,10.6c0,11,0,11-11,11c-10.5,0-10.5,0-10.5-10.3
		C134.8,22.3,134.8,22.3,145.9,22.3z"/>
	<path class="st59" d="M105.8,93.4l-0.4,0.1l-0.5-0.1c-0.6-0.5-0.6-1.3-0.7-2c-0.7-2.9-0.1-5.9-0.3-7.8c0.1,2.2-0.3,5.3,0.3,8.4
		c-1.2,1.5-2.3,1.6-3.5,0.1c0.4-5,0.2-10.1,0.1-15.1c0,4.9,0.6,9.9-0.3,14.8c-0.8,1.6-1.7,1.7-2.9,0.5c-0.6-5,0.5-10-0.5-15
		c-0.2-0.3-0.4-0.6-0.6-0.8c0,0-0.4-0.1-0.4-0.1s-0.4,0-0.4,0.1c-0.3,0.3-0.5,0.5-0.7,0.8c-1.4,4.9,0.6,10.1-1.2,14.9
		c-2,1.3-4,1.3-6,0.2c-0.9-5.3,0.6-10.7-0.8-16c-0.2-0.4-0.3-0.9-0.5-1.3c-0.4-0.6-0.8-1.1-1.3-1.6c-0.1-0.3-0.1-0.6,0-0.9
		c6.4-1.2,12.8-0.3,19.2-0.5c1.4-0.1,2.2,0.6,2.1,2.1C106.1,80.6,107.1,87,105.8,93.4z"/>
	<path class="st60" d="M98,152.5c-2.2,2.1-4.8,1-7,0.4c-5.4-1.5-11.4-1.6-16.1-5.4c6.4-1,12.8-2,19.2-2.9
		C95.4,147.2,96.7,149.8,98,152.5z"/>
	<path class="st61" d="M162.7,73.8c0.8,0,1.7,0,2.5,0c0.8,5.9-0.5,11.9,0.7,17.8c0.7,0.8,1.4,0.7,2.1-0.1c0.4-0.2,0.7-0.1,0.9,0.2
		c0.8,0.7,1.5,0.6,2.1-0.3c0.6-0.4,1.2-0.4,1.8,0c0.7,0.8,1.4,1,2.1,0.2c0.3-0.3,0.6-0.5,0.9-0.8c0.7-0.3,1.5-0.3,2.2,0
		c0.3,0.2,0.6,0.5,0.9,0.7c0.7,0.4,1.4,0.7,2.1,1.1c-4.9,2.3-10.1,0.5-15.1,1c-2,0.2-4,0-6,0c-0.3-0.2-0.4-0.4-0.3-0.7
		c0.1-0.2,0.2-0.3,0.3-0.3c0.7-0.4,1.4-0.7,2-1.1C163.2,85.6,161.8,79.7,162.7,73.8z"/>
	<path class="st62" d="M101,91.9c1,0.7,2,0.7,2.9-0.2c0.2-0.4,0.5-0.5,0.9-0.3c0.1,0.7,0.1,1.4,0.2,2.1c-5.6,0.1-11.3,0.1-16.9,0.2
		c-2.3,0.1-3.3-0.8-3.2-3.2C85,84.9,85,79.2,85,73.6c0.7,0.1,1.4,0.1,2.1,0.2c1.6,5.6,0.3,11.4,0.8,17.1c0,0.3,0.1,0.6,0.1,0.9
		c1.8,1.3,3.5,1.1,5.1-0.5c0.5-0.4,1-0.8,1.7-0.9c0.6,0,1.3,0.1,1.9,0.2c0.4,0.1,0.8,0.3,1.1,0.6c0.1,0.2,0.2,0.4,0.2,0.6
		c0.8,0.7,1.4,0.4,2-0.4c0.2,0,0.5-0.1,0.7-0.1C100.8,91.5,100.9,91.7,101,91.9z"/>
	<path class="st63" d="M156.9,71.5c0,6.1-0.1,12.2,0.1,18.3c0.1,3.3-0.9,5-4.5,4.8c-5.9-0.4-11.8,0.9-17.7-0.8
		c0.1-0.2,0.3-0.5,0.4-0.7c3.6-1.9,7.4-0.6,11.1-1c2.4-0.2,5,0.3,6.9-1.8c2.5-5.5,0.5-11.4,1.4-17c0.1-0.6,0.4-1.1,0.8-1.5
		C155.8,71.3,156.3,71.2,156.9,71.5z"/>
	<path class="st64" d="M105.8,93.4c0-5.5,0-11,0.1-16.5c0.1-3.3-1.3-4.4-4.5-4.3c-5.5,0.2-11,0.1-16.5,0.1
		c6.7-2.2,13.6-0.7,20.3-0.8c0.9,0,1.5,0.9,1.5,1.7C106.5,80.1,108.2,86.9,105.8,93.4z"/>
	<path class="st45" d="M85,48.6c0.8,0.1,1.5,0.2,2.3,0.3c1.1,5.7,0.8,11.4,0.2,17.1c-0.2,0.2-0.4,0.4-0.6,0.7
		c-0.3,0.6-0.6,1.3-1,1.9C83.7,62,85.3,55.2,85,48.6z"/>
	<path class="st65" d="M75.1,113.5c6.2,0,12.4,0,18.6,0c0.2,0.3,0.3,0.5,0.5,0.8C87.8,115.6,81.3,117.2,75.1,113.5z"/>
	<path class="st66" d="M156.9,71.5c-0.3,0-0.7,0.1-1,0.1c-2.5,2.4-5.6,1.4-8.4,1.4c-3.7,0-7.5,0.5-11.3-0.4c-0.6-0.3-1-0.7-1.2-1.3
		C142.3,70.9,149.6,68.5,156.9,71.5z"/>
	<path class="st66" d="M181.8,72.9c-3.6-2.4-7.6-0.9-11.4-1.1c-3.4-0.2-6.9-0.1-10.3-0.1c-0.5,0.6-0.8,0.6-1.1-0.1
		c7.7-1.5,15.4-1.7,23,0.1C182.4,72.1,182.3,72.5,181.8,72.9z"/>
	<path class="st66" d="M154.9,21.4c-6.4,0-12.8,0-19.2,0c0-0.2,0-0.3,0-0.5c6.5,0,12.9,0,19.4,0C155,21,154.9,21.2,154.9,21.4z"/>
	<path class="st66" d="M108.7,73.5c0,6.1,0,12.2,0,18.2c-0.2,0-0.3,0-0.5,0c0-6.1,0-12.2,0-18.2C108.4,73.5,108.6,73.5,108.7,73.5z"
		/>
	<path class="st66" d="M133.9,93.6c-1.7-7.3-1.7-14.7,0-22C136.3,78.9,136.3,86.3,133.9,93.6z"/>
	<path class="st67" d="M133.9,93.6c0-7.3,0-14.7,0-22c0.3-0.1,0.7-0.2,1-0.3c0,0,0,0.4,0,0.4c0.4,0.4,0.8,0.9,1.1,1.4
		c0.6,6.3,0.6,12.5,0,18.8c-0.3,0.5-0.6,1-1,1.5c0,0-0.2,0.4-0.2,0.4C134.5,93.7,134.2,93.6,133.9,93.6z"/>
	<path class="st63" d="M158.9,71.5c0.4,0,0.8,0.1,1.1,0.1c-0.6,7-0.3,13.9-0.1,20.9c0,0.3,0,0.7,0,1
		C157.7,86.3,159.4,78.9,158.9,71.5z"/>
	<path class="st66" d="M181.8,72.9c0.1-0.4,0.1-0.8,0.2-1.2c2.2,6.6,0.4,13.4,1,20.1c-0.4,0-0.8,0-1.2,0c0-6.2,0-12.3,0-18.5
		C181.7,73.3,181.8,72.9,181.8,72.9z"/>
	<ellipse class="st66" cx="108.4" cy="57.6" rx="0.3" ry="13.1"/>
	<ellipse class="st66" cx="133.4" cy="57.6" rx="0.3" ry="13.1"/>
	<path class="st66" d="M156.7,48.3c0,0-0.1-0.5-0.1-0.5c2.3,1,1.1,3.1,1.2,4.6c0.2,4.8,0.1,9.5-1.1,14.3
		C156.7,60.6,156.7,54.5,156.7,48.3z"/>
	<path class="st66" d="M131.9,72.1c-7.3-0.9-14.6-0.2-22-0.4C117.3,70.2,124.6,69.3,131.9,72.1z"/>
	<ellipse class="st66" cx="83.4" cy="82.6" rx="0.3" ry="13.1"/>
	<path class="st68" d="M131,47.5c-7,0-14,0.1-21,0.1C117,46.2,124,46.5,131,47.5z"/>
	<path class="st69" d="M130.9,68.4c0-7,0-13.9,0.1-20.9C132.1,54.5,132.2,61.4,130.9,68.4z"/>
	<path class="st65" d="M96.7,114.7c1-0.7,1.9-0.2,3,0.3C98.4,115.6,97.5,115.9,96.7,114.7z"/>
	<path class="st70" d="M994.1,68.9c-0.3,1.9-0.7,3.8-1,5.7c-2.6,6.9-2.1,7.7,4.8,7.2c-0.5,4.2-3.7,3.9-6.4,3.5
		c-6.5-0.9-13.1-1.5-19.2,0.3c-5,1.5-9.5,1.9-14.3,0.3c-0.4-0.1-0.8,0-1.2,0c0.3,0.1,0.7,0,1,0.1c2.8,1.2,0.9,2.3-0.3,3.1
		c-1.8,1.1-3.9,1.4-5.8,0.5c-4-1.8-7.5-0.6-11,1.1c-3.3,1.6-6.6,2-10.1,0.8c-2.5-0.8-4.9-0.4-7.4,0c-0.1-0.3-0.2-0.6-0.4-1
		c0.4-5,0.9-10,1.3-15c1.5-0.6,2.9,0.1,4.3,0.6c1.5,0.6,2.5,1,3.6-0.9c1.1-1.9,7.2-2.6,9.5-1.5c1.3,0.6,1.8-0.5,2.6-0.8
		c1-0.5,1.7-2,1.9,0.5c0.1,1.1,0.5,1.1,0.9,0c0.2-0.5-0.7-1.9,1.1-1.2c4.2,1.7,7.9-1.2,11.9-1.5c3.8-0.3,8.6,2,11.8-2.5
		c0.9-1.3,2.5-0.4,2.8,1.1c0.4,1.6,1.8,1.9,2.6,1.6c2.3-1-0.3-1.4-0.4-2.2c-0.2-1.3,1-1,1.7-1c4.1,0,8.2,1.3,12.3-1
		C992.4,65.7,994,66.5,994.1,68.9z"/>
	<g>
		<path class="st71" d="M168,238.8c0,2.5,0,4.9,0,7.4c0,2.9-1.1,5-4.3,4.9c-2.8-0.1-4-2-4-4.7c0-18.6,0-37.3,0-55.9
			c0-2.9,0.8-5,4.2-4.9c3.4,0.1,4.1,2.4,4.1,5.1c0,6.2,0,12.3,0,18.5c0,1.6,0.2,3.2,0.4,5.9c3.2-3.1,5.7-5.5,8.1-7.9
			c1.4-1.4,2.9-2.8,4.3-4.1c2.1-1.9,4.5-2.4,6.7-0.4c2.4,2.2,1.3,4.6-0.6,6.5c-3.9,4.1-7.9,8.1-11.9,12.1c-4.8,4.9-4.8,4.9-0.2,9.6
			c3.6,3.7,7.2,7.4,10.9,11c2.3,2.3,4.9,4.8,1.8,8c-3.2,3.4-5.9,0.4-8-1.7c-3.4-3.4-6.4-7.1-9.6-10.7
			C169.3,237.9,168.6,238.3,168,238.8z"/>
		<path class="st1" d="M110.7,226.3c0.1-18.2,16.8-30.1,33.2-24.3c1.4,0.5,2.8,1.2,4,2c2.1,1.4,2.7,3.5,1.7,5.7
			c-1,2.3-3.2,2.3-5.2,1.8c-2.9-0.6-5.6-2-8.7-2.1c-7.3-0.2-12,3.4-15,9.6c-3,6.1-2.3,12,2.2,17.2c4.6,5.3,10.5,7.5,17.5,5.6
			c1-0.3,1.9-0.6,2.8-1.1c2.6-1.2,5.1-1.3,6.4,1.6c1.2,2.8,0.1,5.4-2.8,6.6c-10.5,4.5-23.9,2.9-31.1-7
			C112.2,237.1,110.2,231.8,110.7,226.3z"/>
		<path class="st1" d="M248.8,234.3c0-3.3-0.1-6.7,0-10c0.2-12.2,11.1-22.9,23.3-22.9c2.6,0,5.3-0.1,5.7,3.3
			c0.4,3.4-1.8,4.5-4.8,5.1c-11.2,2.1-15.7,7.5-15.9,18.8c-0.1,5.7,0,11.3,0,17c0,2.9-0.7,5.6-4.2,5.7c-3.5,0.1-4.2-2.6-4.2-5.5
			C248.9,241.9,248.8,238.1,248.8,234.3z"/>
		<path class="st1" d="M41.9,206.4c0-5.7,0-10.5,0-15.3c0-2.8,0.4-5.5,4.1-5.6c4-0.1,4.6,2.6,4.7,5.7c0.1,12,0.3,24,0,36
			c-0.3,11.6-7.8,20.8-18.4,23.4c-12.5,3-23.3-1.5-29.3-12.4c-5.1-9.3-3.3-22.4,4-29.7c8.2-8.2,20.6-9.9,30.9-4.3
			C38.8,204.6,39.8,205.2,41.9,206.4z M8.8,226.1c0,9.2,7.3,16.5,16.5,16.5c9,0,16.5-7.5,16.6-16.5c0-8.9-7.7-16.5-16.6-16.5
			C16.1,209.6,8.9,216.9,8.8,226.1z"/>
		<path class="st1" d="M214.7,241.6c3.7,1.7,7.3,0.7,10.8-0.7c2.9-1.2,6-2,7.5,1.9c1.4,3.7-1.6,5-4.1,6.3c-9,4.4-17.7,3-25.4-2.8
			c-7.6-5.7-11.5-13.8-10.2-23.5c1.5-10.7,8-17.7,18.2-21.1c9.9-3.2,21.7,1.1,27.4,9.3c2.7,3.9,2.2,6.9-1.4,9.9
			c-7.2,5.9-14.1,12.1-21.2,18.2C215.7,239.7,214.8,240.2,214.7,241.6z M203,231.4c1.6,4.8,2.9,5.1,6.9,1.7c6-5.2,12-10.5,18.2-15.5
			c3.1-2.5,2.2-3.9-0.5-5.5c-5.6-3.2-11.3-3.6-17.1-0.4c-5.7,3.1-8,8.1-8.5,14.9C202.2,227.8,202.4,229.6,203,231.4z"/>
		<path class="st1" d="M105.8,226.3c0,14.3-11,25.2-25.5,25.1c-14,0-25.3-11.4-25.2-25.5c0.1-13.9,11.2-25.1,25.1-25.2
			C94.6,200.6,105.8,211.8,105.8,226.3z M97,226.2c0.1-9-7.4-16.5-16.5-16.6c-9.1-0.1-16.4,7.1-16.6,16.4
			c-0.2,8.8,7.6,16.5,16.5,16.6C89.5,242.7,96.9,235.3,97,226.2z"/>
	</g>
	<path class="st72" d="M952.1,202.9c1.3-6.6,2.7-13.3,4-19.9c1.6-5,2.6-10.1,3.2-15.3c0.6-2.1,1.2-4.1,1.8-6.2c1.2-3.1,3-4.6,6.8-4
		c2.5,0.4,5.5,1,8-0.8c0.9-0.6,1.8-0.7,2.7,0.1c1,0.9,1,1.9,0.6,3.2c-0.5,1.9-1.8,3.5-2.3,5.5c-0.1,0.7-0.2,1.3-0.4,2
		c-4.2,7.6-8.2,15.2-11.6,23.1c-2.3,4.3-4.5,8.8-7,13C955.8,206.9,953.6,207,952.1,202.9z"/>
	<path class="st73" d="M921.9,113.6c0-2.3-0.1-4.7-0.1-7c0.3-2,0.6-4,1-6c2.7-2.7,6.3-1.5,9.4-2.3c7.7-2,15.7-2.2,23.5-3.3
		c9.7-1.3,19.4-2,29.1-3.7c4.6-0.8,8.9-2.2,13.3-3.2c4-1,8.4,0.4,12.7,0.6c2.5,0.2,3.5,2.3,2.1,4.8c-1.4,3.3-2.9,6.6-4.3,9.9
		c-0.6,0.7-1.1,1.4-1.7,2.1c-7.4,2.6-15.2,2.7-22.9,3.2c-4,0.2-8-0.4-11.5,2.2c-0.7,0.5-1.6,0.7-2.4,0.6
		c-11.9-1.5-23.2,4.4-35.2,3.2c-2.4-0.2-4.3,1.6-6.4,2.5C924.7,118.6,923.1,117.7,921.9,113.6z"/>
	<path class="st74" d="M1012.9,93.5c0-1.7-0.8-3.7-2.3-3.2c-5.5,2.2-11.3-2.8-16.8,1.1c-4.2,3-9.4,2.1-14.2,2.9
		c-3.2,0.5-6.7-0.3-9.6,2c-0.4,0.3-1.1,0.6-1.4,0.4c-7.2-3.3-13.9,2.2-21.3,0.9c-4.5-0.8-9.7,1.2-14.4,2.7
		c-3.5,1.1-6.8,0.8-10.2,0.3c-0.4-3-0.1-6,0.4-9c0.8-4.6,5.7-3.1,6.7-2.5c5.4,3.5,9.5-0.4,13.8-1.9c2.6-0.9,4.6-1.6,6.9,0
		c2.3,1.6,4.6,0.8,6.9-0.4c-1.7-0.1-3.4-0.2-5.1-0.3c3.5-0.6,6.7-2.9,10.3-1.4c4.2,1.8,7.9-1.2,11.6-1.9c5.8-1.1,11.2-0.3,16.7,0.1
		c2.6,0.2,4.9,0.4,7-1.4c4.4-1,8.8-2.1,13.2-3.1c1.1-0.1,2.3,0,3.4-0.2c3.4-0.6,5.1,0.5,4.5,4.2
		C1016.9,86.2,1014.9,89.9,1012.9,93.5z"/>
	<path class="st75" d="M921.9,113.6c2,2.3,3.9,2.8,6.9,1c2-1.2,4.3-2.1,7.3-1.8c4.4,0.4,9.1-1.1,13.5-1.6c4.8-0.6,9.6-2.9,14.7-2
		c2.6,0.4,7.4,1,7.6,0.3c1-3.3,3.6-1.5,5.2-2.4c3.9-2,8.1,0.9,11.9-0.7c5.4-2.1,11.5,0.6,16.7-2.6c0.6-0.4,1,1,1.2,1.8
		c-1.6,4.2-3.6,8.2-6,12c-1.7,0.6-3.5,1.1-4.7,2.6c-0.8,0.9-1.9,1.7-3.1,1.4c-3.6-1-6.9,0.1-10.2,1c-4.3,1.2-8.8,0.3-12.6,1
		c-4.9,0.9-10.3,1.3-15.1,3.4c-2.3,1-4.8,1-7.2-0.2c0.7-7.6,0.6-7.7-6.8-6.1c-6.1,1.3-12.2,2.6-18.3,3.9
		C919.6,121.1,921.9,117.2,921.9,113.6z"/>
	<path class="st76" d="M948,126.6c1.4-0.4,2.1-4.3,4.5-0.8c0.2,0.3,4.1-1.3,5.8-2.4c3.2-2.2,7.5,0.6,10.5-3c1.1-1.3,4.1,0.2,5.8,1.5
		c1.6,1.3,2.7,2.3,3.1-0.8c0.1-0.4,1.1-1.2,1.4-1.1c4.6,1.8,8.9-4,13.6-0.4c1,0.8,1.4,0.4,2-0.9c1.4-2.9,3.8-2.8,6.3-1.2
		c-0.7,1.9-1.5,3.8-2.2,5.7c-2.3,4.1-4.6,8.2-6.8,12.3c-4.4,4.8-10.8,5.3-16.1,5.1c-4.8-0.2-8.9,0.5-13.5,1.5c-3.9,0.8-8,1-12,2.4
		c-1.9,0.7-4.4,0.9-5.5-1.9c0-1.3,0.1-2.5,0.1-3.8c1.1-3.3,1.7-6.6,2-10C947.3,128.1,947.7,127.3,948,126.6z"/>
	<path class="st77" d="M944.8,142.6c3,0.5,5.9,0.8,8.5-1.7c1.5-1.5,4.4-1.6,5.6-1c3.9,2,5.6-0.5,7.6-2.7c1.5-1.6,3.1-0.5,4.2,0
		c2.9,1.3,5.6,5,8.3-0.5c0.8-1.6,0.7,0.5,0.8,0.9c0.3,0.9,0.6,0.7,1.4,0.5c2.6-0.6,5.4-0.5,7.4-2.7c1.1-1.2,2.2-1.4,3.2,0.2
		c-1.5,3.3-2.9,6.6-4.4,9.9c-3.6,6.7-7.1,13.4-10.7,20c-1.2-2.7,3-4.9,0.7-7.8c-2.7,0.7-1.8,3.5-3,5.1c-4.7-3.8-9.1-4.2-13.6-1.3
		c0.2-1.1,0.3-2.3,0.5-3.4c0.3-1.9,1.4-4-0.7-5.5c-1.7-1.3-3.4-0.3-5,0.6c-2.8,0.7-5.6,1.4-8.4,2.3c-2,0.6-3.8,0.7-5.2-1.1
		C942.7,150.4,943.5,146.4,944.8,142.6z"/>
	<path class="st78" d="M774,107.6c-0.7,1-1.4,2-2.1,3c-0.8,0.2-1.8,0.4-1.7-0.8c0.2-2.1,1.5-3.2,3.7-3.1
		C773.9,106.9,773.9,107.2,774,107.6z"/>
	<path class="st79" d="M327.9,110.6c-0.3,0-0.6,0-1,0.1c-0.3-0.7-0.7-1.4-1-2.1c-0.5-1.1,0.2-1.6,1-2c0,0,0,0,0,0
		C329.8,107.3,328.4,109,327.9,110.6z"/>
	<path class="st80" d="M326.9,106.6c-0.3,0.7-0.7,1.3-1,2c-0.7-0.4-1.6-0.9-1.2-1.8C325.2,105.7,326.2,106.4,326.9,106.6z"/>
	<path class="st81" d="M110.9,134.1c0,0.4-0.1,0.7-0.1,1.1c-1,1.8-2,3.6-4.3,4.1c-1.3,0.4-2.6,0.3-3.7-0.5c-0.3-0.1-0.6-0.1-0.9-0.2
		c-1.5-2-2.6-4.1-1-6.5c0-0.4,0.1-0.8,0.1-1.1C105.9,127.3,108.2,131.5,110.9,134.1z"/>
	<path class="st82" d="M110.9,134.1c-1.7-1.2-4.8,0-5.4-3.6c-0.2-1.2-2.8,0.7-4.5,0.4c1.1-2.8,3.5-2.8,5.8-2.3
		C109.5,129.2,110.9,131.3,110.9,134.1z"/>
	<path class="st83" d="M100.9,132c-0.3,2.3,0.4,4.4,1,6.5C98.7,136.8,97.3,134.8,100.9,132z"/>
	<path class="st84" d="M102.8,138.7c1.4,0,2.7-0.1,4.1-0.1c0.7,0.4,0.7,0.8,0.1,1.3C105.3,140.6,103.5,141.8,102.8,138.7z"/>
	<path class="st85" d="M107,139.9c0-0.4-0.1-0.9-0.1-1.3c1.7-0.7,1.9-3,3.9-3.4C111,138,109.3,139.2,107,139.9z"/>
	<path class="st86" d="M118.4,90.8c0-5.4,0-10.8,0-16.2c0.3,0,0.6,0,0.9,0c0,5.4,0,10.8,0,16.2C119,90.7,118.7,90.7,118.4,90.8z"/>
	<path class="st45" d="M122.7,73.7c0.8,0,1.7,0,2.5,0c0.4,5.9,0.5,11.8-0.1,17.8c-0.8,0-1.5,0-2.3,0
		C122.1,85.6,122.3,79.7,122.7,73.7z"/>
	<path class="st87" d="M129.1,74.7c0,5.4,0,10.7,0,16.1c-0.2,0-0.5,0-0.7,0c0-5.4,0-10.7,0-16.1C128.6,74.7,128.8,74.7,129.1,74.7z"
		/>
	<path class="st88" d="M115.3,90.8c0-5.4,0-10.8,0-16.1C116.8,80,116.9,85.4,115.3,90.8z"/>
	<path class="st89" d="M112.8,74.9c0,5.2,0,10.4,0,15.6c-0.2,0-0.4,0-0.7,0c0-5.2,0-10.4,0-15.6C112.4,75,112.6,75,112.8,74.9z"/>
	<path class="st90" d="M125,91.5c0-5.9,0.1-11.8,0.1-17.8C126.7,79.7,126.8,85.6,125,91.5z"/>
	<path class="st90" d="M122.7,73.7c0,5.9,0.1,11.8,0.1,17.8C121,85.6,121.1,79.7,122.7,73.7z"/>
	<path class="st91" d="M63.3,74.6c0,5.4,0,10.7,0,16.1c-0.3,0-0.6,0-0.9,0c0-5.4,0-10.7,0-16.1C62.7,74.6,63,74.6,63.3,74.6z"/>
	<path class="st91" d="M66.5,74.6c0,5.4,0,10.7,0,16.1c-0.3,0-0.6,0-0.8,0c0-5.4,0-10.7,0-16.1C65.9,74.6,66.2,74.6,66.5,74.6z"/>
	<path class="st92" d="M71.7,90.6c-0.7,0.3-1.3,0.6-2,0.9c-0.6-5.9-0.4-11.8-0.1-17.7c0.7,0.3,1.4,0.5,2.1,0.8
		C72.8,79.9,72.9,85.3,71.7,90.6z"/>
	<path class="st93" d="M77,90.6c-0.7,0.7-1.3,1.3-1.9-0.1c0.5-5.2,0.5-10.5,0-15.7c0.5-1.2,1.2-0.7,1.9-0.1
		C79.2,79.9,79.2,85.2,77,90.6z"/>
	<path class="st94" d="M79.8,90.5c-0.6,1.4-1.3,0.9-2,0.1c-0.6-5.3-0.7-10.6,0.1-15.9c0.7-0.5,1.3-1.2,1.9,0.1
		C79.2,80,79.2,85.2,79.8,90.5z"/>
	<path class="st95" d="M71.7,90.6c0-5.4,0-10.7,0-16.1c3,3.8,0.8,8.2,1.3,12.3C73.2,88.1,74.2,90.1,71.7,90.6z"/>
	<path class="st96" d="M69.6,73.8c0,5.9,0.1,11.8,0.1,17.7C68,85.6,68.1,79.7,69.6,73.8z"/>
	<path class="st86" d="M75.1,74.7c1.2,5.2,1.3,10.5,0,15.7C75.1,85.2,75.1,80,75.1,74.7z"/>
	<path class="st97" d="M77.9,74.6c0,5.3,0,10.6-0.1,15.9c0,0-0.4,0-0.4,0s-0.4,0-0.4,0c0-5.3,0-10.6,0-16
		C77.3,74.6,77.6,74.6,77.9,74.6z"/>
	<path class="st86" d="M79.8,90.5c-1.4-5.2-1.3-10.5,0-15.7C79.7,80,79.8,85.2,79.8,90.5z"/>
	<path class="st98" d="M144.8,66.6c-1.2,0-1.8-0.6-1.8-1.8c0-4.7,0-9.3,0-14c0-1.3,0.7-1.8,1.9-1.2
		C147.2,55.2,147.3,60.9,144.8,66.6z"/>
	<path class="st99" d="M152.8,65.6c-0.6,0.3-1.3,0.6-1.9,1c-0.8-5.9-0.4-11.8-0.2-17.7c0.8,0.3,1.5,0.5,2.3,0.8
		C153.7,54.9,153.9,60.3,152.8,65.6z"/>
	<path class="st92" d="M140,66.5c-0.7,0-1.5,0-2.2,0c-0.6-5.7-0.9-11.3,0.2-17c0.6,0,1.2,0,1.8,0C140.9,55.2,140.5,60.9,140,66.5z"
		/>
	<path class="st100" d="M145.9,49.6c0.7-0.6,1.4-1.1,1.9,0.1c-1.2,5.6,0.4,11.3-0.8,16.8c-0.3,0-0.7,0-1,0.1
		C145,60.9,145.1,55.3,145.9,49.6z"/>
	<path class="st66" d="M138,49.6c-0.1,5.7-0.1,11.3-0.2,17C136.3,60.9,135.9,55.2,138,49.6z"/>
	<path class="st101" d="M150.6,48.8c0.1,5.9,0.2,11.8,0.2,17.7C148.9,60.7,149.3,54.7,150.6,48.8z"/>
	<path class="st102" d="M140,66.5c-0.1-5.7-0.1-11.3-0.2-17C142.2,55.2,141.7,60.9,140,66.5z"/>
	<path class="st95" d="M152.8,65.6c0-5.3,0.1-10.7,0.1-16c2.6,5.3,1.1,10.7,0.7,16.2c0,0-0.3,0.1-0.4,0.1
		C153,65.8,152.9,65.7,152.8,65.6z"/>
	<path class="st87" d="M147,66.5c0.4-5.6-1.1-11.3,0.8-16.8C147.4,55.3,148.9,61,147,66.5z"/>
	<path class="st103" d="M145.9,49.6c0,5.7,0.1,11.3,0.1,17c-0.4,0-0.7,0-1.1,0c0-5.7,0.1-11.3,0.1-17
		C145.3,49.6,145.6,49.6,145.9,49.6z"/>
	<path class="st104" d="M172.8,91.4c-0.6,0-1.2,0-1.8,0c0-5.6,0-11.2,0-16.9c0.6,0,1.2,0,1.8,0C172.8,80.1,172.8,85.7,172.8,91.4z"
		/>
	<path class="st92" d="M178,91.4c-0.7,0.8-1.5,0.4-2.3,0.1c-0.3-5.7-0.9-11.3,0.3-16.9c0.7-0.3,1.4-0.5,2.1-0.8
		C178.4,79.7,178.8,85.5,178,91.4z"/>
	<path class="st87" d="M168.9,91.6c-0.3,0-0.6-0.1-0.9-0.2c0-5.6,0-11.2,0-16.7c0.5,0,0.9,0,1.4,0C169.4,80.3,170.1,85.9,168.9,91.6
		z"/>
	<path class="st89" d="M162.7,73.8c0,5.9,1.3,11.9-0.7,17.8C161.9,85.6,160.6,79.6,162.7,73.8z"/>
	<path class="st90" d="M165.9,91.5c-2-5.9-0.7-11.8-0.7-17.8C167.1,79.6,165.9,85.6,165.9,91.5z"/>
	<path class="st89" d="M176.1,74.6c-0.1,5.6-0.2,11.3-0.3,16.9c-0.3,0-0.5,0-0.8,0c-0.1-5-0.2-10.1-0.2-15.1
		C174.7,75.6,174.4,74.3,176.1,74.6z"/>
	<path class="st102" d="M178,91.4c0.1-5.9,0.1-11.7,0.2-17.6c2,5.8,0.7,11.8,0.7,17.7C178.6,91.5,178.3,91.5,178,91.4z"/>
	<path class="st105" d="M94.6,48.8c0.9,0,1.8,0,2.7,0c0.3,5.8,0,11.6,0.1,16.6c0-5-0.2-10.8,0.1-16.6c2.8,5.4,1.1,11.2,1.1,16.8
		c0,2.6-2.3,1.5-3.8,0.9C93.2,60.7,93.7,54.8,94.6,48.8z"/>
	<path class="st98" d="M102.8,49.6c0.8-0.4,1.8-0.5,1.8,0.6c0.1,5.2,0,10.4-0.2,15.6c0,0.3-1,0.5-1.6,0.8
		C100.5,60.9,100.6,55.3,102.8,49.6z"/>
	<path class="st86" d="M90.5,65.9c0-5.4,0-10.7,0-16.1c0.3,0,0.6,0,0.9,0c0,5.4,0,10.8,0,16.1C91.1,65.9,90.8,65.9,90.5,65.9z"/>
	<path class="st106" d="M94.6,48.8c0.1,5.9,0.2,11.8,0.2,17.7c-1.2-0.2-1.7-1-1.6-2.1C93.8,59.3,91.7,53.8,94.6,48.8z"/>
	<path class="st45" d="M87.5,48.8c2.8,5.7,1.1,11.6,1,17.5c0,0.6-1,0.7-1.7,0.3c0,0,0.1-0.2,0.1-0.2C88,60.6,87,54.7,87.5,48.8z"/>
	<path class="st100" d="M101.9,66.6c-0.3,0-0.7,0-1,0c-1.2-5.6,0.2-11.2-0.8-16.8c0.6-1.2,1.2-0.6,1.9-0.1
		C102.7,55.3,102.8,60.9,101.9,66.6z"/>
	<path class="st66" d="M97.5,48.8c0.8,5.6,0.3,11.1-0.1,16.7C97,60,96.5,54.4,97.3,48.8C97.3,48.8,97.5,48.8,97.5,48.8z"/>
	<path class="st88" d="M87.5,48.8c0.5,5.9,1.6,11.8-0.6,17.7c0.1-5.9-0.5-11.8,0.3-17.7C87.3,48.8,87.5,48.8,87.5,48.8z"/>
	<path class="st58" d="M101.9,66.6c0-5.6,0-11.3,0.1-16.9c0.3,0,0.6,0,0.9,0c0,5.7,0.1,11.3,0.1,17
		C102.6,66.6,102.2,66.6,101.9,66.6z"/>
	<path class="st66" d="M100.1,49.7c1.8,5.5,0.5,11.2,0.8,16.8C98.9,61,100.4,55.3,100.1,49.7z"/>
	<path class="st86" d="M118.3,67.3c0-6.4,0-12,0-17.9C120.3,52.4,120.4,62.6,118.3,67.3z"/>
	<path class="st107" d="M122.5,48.8c1,0,1.9,0,2.9,0c0.5,6,1.6,11.9-0.6,17.8c-0.7,0-1.3,0-2-0.1C121.2,60.7,121.7,54.7,122.5,48.8z
		"/>
	<path class="st88" d="M115.4,49.8c1.5,5.5,1.4,11.1,0,16.7C115.4,61,115.4,55.4,115.4,49.8z"/>
	<path class="st87" d="M128.2,66.6c0-5.6,0-11.2,0-16.8c0.3,0,0.5,0,0.8,0c0,5.6,0,11.2,0,16.8C128.7,66.6,128.5,66.6,128.2,66.6z"
		/>
	<path class="st101" d="M124.7,66.6c0.6-5.9-0.5-11.9,0.6-17.8c0,0,0-0.2,0-0.2c2.2,1.6,1,3.9,1,5.8c0.1,4,0.4,8.1-0.2,12.2
		C125.7,67.3,125.2,67.6,124.7,66.6z"/>
	<path class="st68" d="M121.9,66.6c-1.5-6-2.1-11.9,0.4-17.8C122.2,54.8,123,60.7,121.9,66.6z"/>
	<path class="st68" d="M112,66.5c-1.7-5.9-2.1-11.8,0.2-17.7C113.1,54.7,113.6,60.6,112,66.5z"/>
	<path class="st108" d="M112,66.5c-0.2-5.9-0.5-11.8,0.2-17.7c0.3,0.2,0.5,0.5,0.8,0.7c0.4,5.7,1,11.3-0.3,16.9l-0.4,0L112,66.5z"/>
	<path class="st101" d="M121.9,66.6c0-5.9-0.7-11.9,0.4-17.8c0,0,0.2,0,0.2,0c0.8,5.9,0.3,11.8,0.3,17.7
		C122.5,66.5,122.2,66.6,121.9,66.6z"/>
	<path class="st68" d="M126.1,66.6c-0.6-6,0.8-12-0.8-17.9C128.4,54.5,126.9,60.5,126.1,66.6z"/>
	<path class="st109" d="M112.7,66.5c0.1-5.6,0.2-11.3,0.3-16.9C114.2,55.2,114.9,60.9,112.7,66.5z"/>
	<path class="st110" d="M137.9,23.7c2.6-0.2,4.1,0.6,4.1,3.6c-0.1,4,0,8-0.1,12c-0.1,2.9-1.2,4.2-4,2.2c-2-5.3-0.6-10.8-0.8-16.2
		C137.2,24.7,137.5,24.1,137.9,23.7z"/>
	<path class="st111" d="M151.9,23.6c2.4-0.1,3.1,1.4,3.1,3.5c0,3.9-0.1,7.9,0,11.8c0.1,2.9-1.4,3.8-4,3.6c-0.2-0.3-0.3-0.5-0.5-0.8
		c0-0.3-0.1-0.6-0.1-0.9c0.1-4.1,0-8.2,0.1-12.3C150.4,26.9,150.3,25,151.9,23.6z"/>
	<path class="st107" d="M150.9,41.6c0,0.3,0,0.6,0,1c-1.9-0.5-2.1-1.9-2.1-3.5c0-4,0-7.9,0-11.9c0-2,0.5-3.7,3-3.6
		C151.5,29.6,152.9,35.7,150.9,41.6c-1.1-4.3-0.2-8.6-0.5-11.5C150.9,33,149.7,37.4,150.9,41.6z"/>
	<path class="st66" d="M146.6,41.3c0-5.4,0-10.8,0-16.1c0.3,0,0.5,0,0.8,0c0,5.4,0,10.8,0,16.1C147.2,41.3,146.9,41.3,146.6,41.3z"
		/>
	<path class="st112" d="M144.5,25c0,5.4,0,10.8,0,16.2c-0.3,0-0.6,0-1,0c0-5.4,0-10.8,0-16.2C143.9,25,144.2,25,144.5,25z"/>
	<path class="st113" d="M137.9,23.7c0,0.3,0,0.7,0,1c-1.3,5.5,0.4,11.3-0.9,16.8C135.8,35.5,134.1,29.4,137.9,23.7z"/>
	<path class="st66" d="M136.9,41.5c0.5-5.6-1.2-11.3,0.9-16.8c0,5.6,0,11.2,0,16.8c0,0-0.5,0.1-0.5,0.1L136.9,41.5z"/>
	<path class="st114" d="M91.5,74.3c0,5.5,0,11.1,0,16.6c-2.1-5.5-1.4-11.1-1.5-16.6C90.5,74.4,91,74.4,91.5,74.3z"/>
	<path class="st106" d="M94.8,91.4c-0.6-0.1-1.1-0.1-1.7-0.2c0-4.4,0-8.9,0.1-13.3c0-1.5-0.8-3.4,1.4-4.2
		C97.4,79.6,97.4,85.5,94.8,91.4z"/>
	<path class="st115" d="M104.8,91.4c-0.3,0.1-0.6,0.2-0.9,0.3c-2.1-5.8-0.3-11.6-1-17.3c0.6,0,1.3-0.1,1.9-0.1
		C104.8,80,104.8,85.7,104.8,91.4z"/>
	<path class="st116" d="M94.8,91.4c0-5.9-0.1-11.8-0.1-17.7c0.4,0,0.8,0,1.2-0.1c2.9,5.5,1,11.3,1.3,17c-0.1,0.3-0.1,0.6-0.2,0.8
		C96.2,92.3,95.5,92.3,94.8,91.4z"/>
	<path class="st117" d="M100.7,73.7c2.3,6,1.7,12.1,0.3,18.2c0,0-0.1-0.4-0.1-0.4C100,85.6,100.3,79.7,100.7,73.7z"/>
	<path class="st87" d="M100.7,73.7c0.9,5.9,0.6,11.9,0.1,17.8c-0.3,0-0.6,0-0.9-0.1C100.3,85.5,98.9,79.6,100.7,73.7z"/>
	<path class="st118" d="M97.7,73.7c2.2,6,1.5,12,0.3,18.1c0,0-0.2-0.3-0.2-0.3C96.3,85.6,96.5,79.7,97.7,73.7z"/>
	<path class="st119" d="M97.7,73.7c0,5.9,0.1,11.8,0.1,17.7l-0.4,0.1c0,0-0.4,0-0.4,0s0,0.1,0,0.1c-0.9-6-1.2-11.9,0.1-17.9
		C97.3,73.7,97.5,73.7,97.7,73.7z"/>
	<path class="st107" d="M97.2,73.7c0,6-0.1,11.9-0.1,17.9c-2.3-5.9-0.6-12-1.1-18C96.3,73.7,96.7,73.7,97.2,73.7z"/>
	<path class="st62" d="M87.7,73.7c2.3,6,1.6,12,0.3,18c0,0-0.2-0.2-0.2-0.2C87.1,85.6,87.3,79.6,87.7,73.7z"/>
	<path class="st120" d="M87.7,73.7c0.7,5.9,0.5,11.9,0.1,17.8c-1.8-5.9-0.7-11.8-0.7-17.7C87.4,73.8,87.5,73.8,87.7,73.7z"/>
	<path class="st121" d="M135,93.4c0-0.3,0-0.6,0.1-0.9c0.4-0.5,0.7-1,0.9-1.5c0.1-0.4,0.4-0.7,0.6-1c0.3-0.3,0.6-0.5,1-0.7
		c0.6-0.3,1-0.8,1.3-1.4c1-3,0.4-6.2,0.6-9.2c0.1-1.7-0.4-3.6,1.1-5.1c3.2-0.4,2.7,1.9,2.9,3.8c0.3,3.9-0.5,7.8,0.6,11.7
		c0.3,0.5,0.6,1,1.1,1.3c0.3,0.1,0.6,0.1,0.8,0c0.5-0.3,0.8-0.6,1-1.1c1-4,0.2-8,0.5-11.9c0.1-1.9-0.3-4.3,3-3.7
		c2.2,4.6,0.1,9.7,1.4,14.3c0.2,0.4,0.3,0.8,0.6,1.1c0.3,0.3,0.5,0.6,0.8,0.8c0.3,0.2,0.7,0.4,1,0.6c0.4,0.3,0.7,0.8,1,1.3
		c0.2,0.3,0.4,0.6,0.7,0.8C149,94.7,142,93.1,135,93.4z"/>
	<path class="st118" d="M135,72.6c-0.1-0.3-0.1-0.6-0.1-0.9c7,0,13.9-0.1,20.9-0.1c0.1,0.3,0.1,0.6,0,1c-0.5,0.4-1,0.8-1.6,1.1
		c-5.6,0.3-11.2-0.2-16.7,0.2C136.6,74,135.7,73.4,135,72.6z"/>
	<path class="st122" d="M154.9,72.7c0.3,0,0.7-0.1,1-0.1c0,6.7,0,13.3,0,20c-0.3,0-0.6,0-0.9,0c-2.8-6-1.3-12.3-1.1-18.4
		C154.1,73.6,154.5,73.1,154.9,72.7z"/>
	<path class="st58" d="M154.9,72.7c-0.1,0.4-0.1,0.8-0.2,1.2c-0.3,0.2-0.5,0.5-0.8,0.7c-0.3,0.2-0.6,0.3-1,0.4c-0.4,0-0.7,0-1.1,0
		c-0.4-0.1-0.7-0.3-1-0.5c-0.3-0.3-0.5-0.5-0.8-0.8c-2.5,5.8-0.7,11.9-1.1,17.9c0,0.1-0.3,0.3-0.3,0.3c-0.3-0.1-0.6-0.3-0.9-0.4
		c-0.3-0.3-0.6-0.7-0.8-1.2c-0.4-4.3,0-8.6-0.3-12.9c-0.2,4.6,0.9,9.2-0.7,13.8c-0.4,0.5-0.8,0.6-1.3,0.2c-2.1-3.9-0.1-8.2-0.9-11.3
		c-0.6,3.2,1.1,7.4-0.9,11.3c-2.1-1.9-0.7-4.5-1-6.7c-0.6-3.7,1.1-7.5-1.2-11c-0.3,0.3-0.5,0.6-0.8,0.8c-0.4,0.4-0.9,0.8-1.3,1.2
		c-0.2,0.4-0.5,0.7-0.7,1.1c-1.2,4.9,0,9.9-1.1,14.8c-0.6,0.3-1.2,0.7-1.8,1c0-6.6,0-13.3,0-19.9C141.7,72.6,148.3,72.7,154.9,72.7z
		"/>
	<path class="st66" d="M139.7,25.7c1.8-0.5,1.3,1,1.3,1.7c-0.2,4.4,0.6,8.9-0.4,13.3c0,0.1-0.3,0.1-0.4,0.1c-0.2,0-0.3-0.2-0.4-0.2
		C139.2,35.6,139.2,30.6,139.7,25.7z"/>
	<path class="st107" d="M139.7,25.7c0,5,0,9.9,0,14.9C138.4,35.6,138.4,30.6,139.7,25.7z"/>
	<ellipse class="st95" cx="153.5" cy="33.1" rx="0.4" ry="11"/>
	<path class="st101" d="M150.9,41.6c-2.7-5.3-0.4-10.9-1.4-16.3c0.5,0,0.9,0,1.4,0C150.9,30.8,150.9,36.2,150.9,41.6
		C150.9,41.6,150.9,41.6,150.9,41.6z"/>
	<path class="st115" d="M143,91.4c0-5.7,0-11.3,0-17c0.6,0,1.2,0,1.8-0.1c0,5.7,0,11.4,0,17.1C144.2,91.4,143.6,91.4,143,91.4z"/>
	<path class="st123" d="M137.7,73.7c0.8,0,1.7,0,2.5,0c0.3,0.7,0.3,1.5,0,2.2c-0.4,4.3-0.3,8.7-0.1,13c0.2,0.5,0.2,1-0.2,1.4
		c-0.3,0.4-0.7,0.9-1,1.3c-0.3-0.4-0.7-0.9-1-1.3C136.2,84.9,136.6,79.4,137.7,73.7z"/>
	<path class="st124" d="M151.9,73.6c0.4,0,0.8,0.1,1.3,0.1c1.2,5.9,1.4,11.8-0.2,17.7c-0.6,0.8-1.3,0.9-2,0.2c0-4.4-0.1-8.9,0-13.3
		C150.9,76.7,150.7,75,151.9,73.6z"/>
	<path class="st125" d="M153.7,73.8c0.4,0,0.7,0,1.1,0c0.1,6.3,0.1,12.5,0.2,18.7c-0.3-0.4-0.7-0.7-1-1.1
		C153,85.6,153.3,79.7,153.7,73.8z"/>
	<path class="st1" d="M147.7,90.5c0.1,0.3,0.2,0.6,0.1,0.9c-0.6-0.1-1.1-0.2-1.7-0.2c0.5-5.7-0.8-11.5,0.8-17.2
		C148.2,79.5,146.7,85.1,147.7,90.5z"/>
	<path class="st43" d="M136.9,91.6c-1.5-6-1.9-11.9,0.3-17.8c0.3,5.6,0.7,11.2-0.2,16.7C136.9,90.9,136.9,91.2,136.9,91.6z"/>
	<path class="st89" d="M153.7,73.8c0.1,5.9,0.1,11.8,0.2,17.7c-0.3,0-0.6,0-0.9-0.1c0.1-5.9,0.1-11.8,0.2-17.7
		C153.3,73.7,153.5,73.8,153.7,73.8z"/>
	<path class="st107" d="M151.9,73.6c-0.4,6,1.1,12.1-0.9,18c0-0.3,0-0.7,0-1c-1-5.6-0.5-11.3-0.2-16.9
		C151.1,73.7,151.5,73.6,151.9,73.6z"/>
	<path class="st126" d="M136.9,90.5c0.1-5.6,0.2-11.2,0.2-16.7c0.2,0,0.3,0,0.5,0c0.1,5.6,0.1,11.2,0.2,16.8c0,0-0.5,0-0.5,0
		L136.9,90.5z"/>
	<path class="st102" d="M139.9,90.5c0-0.3-0.1-0.7-0.2-1c-0.6-4.6-0.6-9.2,0-13.9c0.1-0.6,0.3-1.3,0.4-1.9c0.2,0,0.4,0,0.6-0.1
		C140.9,79.3,142.4,85,139.9,90.5z"/>
	<path class="st90" d="M150.7,73.7c0.1,5.6,0.1,11.3,0.2,16.9c-2.5-5.5-1-11.3-0.8-16.9C150.3,73.7,150.5,73.7,150.7,73.7z"/>
	<path class="st87" d="M147.7,90.5c-1.6-5.4-0.4-11-0.8-16.5C148.9,79.5,147.5,85,147.7,90.5z"/>
	<path class="st107" d="M139.7,75.7c0,4.6,0,9.2,0,13.9C138.4,84.9,138.4,80.3,139.7,75.7z"/>
</g>
<g>
	<path class="st127" d="M368.8,377.4c0-16.4,0.1-32.8,0-49.2c0-4.4,1.6-7.3,5.4-9.4c21.2-12.1,42.4-24.2,63.5-36.4
		c3.8-2.2,7.1-2.1,10.8,0.1c21,12.2,42,24.2,63.1,36.2c4.1,2.3,5.7,5.4,5.7,10.1c-0.1,32.5-0.1,65.1-0.2,97.6c0,6.9-2.4,8.3-8.3,4.9
		c-11.7-6.7-23.3-13.4-35.1-20c-4.2-2.3-6.1-5.4-6-10.3c0.2-14.5,0-29.1,0.1-43.6c0-4.6-1.6-7.9-5.7-10c-4.5-2.3-8.9-4.9-13.2-7.6
		c-3.9-2.4-7.6-2.6-11.6-0.1c-4.5,2.8-9.2,5.4-13.9,8c-3.7,2-5.3,4.9-5.2,9.1c0.1,14.7-0.1,29.3,0.1,44c0.1,5-1.8,8.2-6.2,10.6
		c-11.8,6.5-23.4,13.3-35.1,20c-5.7,3.3-8.2,1.9-8.2-4.7c0-16.4,0-32.8,0-49.2C368.9,377.4,368.8,377.4,368.8,377.4z"/>
	<path class="st127" d="M912.4,366c0-12.3,0.1-24.5-0.1-36.8c-0.1-4.4,1.7-7.2,5.5-9.4c21.2-12.1,42.3-24.3,63.4-36.5
		c3.7-2.2,7.1-2.2,10.9,0c21.1,12.3,42.2,24.5,63.3,36.7c3.5,2,5.2,4.7,5.1,8.7c-0.1,5.5-0.1,10.9,0,16.4c0.1,3.7-1.4,6.4-4.6,8.2
		c-12.7,7.3-25.3,14.8-38,22c-4.2,2.4-7,0.7-7-4.2c-0.1-5.2-0.1-10.4,0-15.6c0.1-2.9-0.9-4.8-3.4-6.2c-6.1-3.4-12.1-6.8-18-10.4
		c-2.3-1.4-4.4-1.4-6.7,0c-6,3.5-12,7-18,10.4c-2.3,1.3-3.4,3-3.4,5.8c0.1,6.8,0.2,13.6,0,20.4c-0.1,3.2,1.2,5.1,4,6.6
		c20.7,11.8,41.4,23.7,62.1,35.5c2,1.2,4.5,2,4.5,5c0,3-2.6,3.8-4.6,4.9c-11.6,6.5-23.4,12.8-34.9,19.4c-4.1,2.4-7.7,2.5-12,0
		c-20.8-12-41.6-23.8-62.5-35.6c-3.8-2.1-5.5-5-5.4-9.4C912.5,390.2,912.4,378.1,912.4,366z"/>
	<path class="st128" d="M616.6,285.1c5.4-3.9,7.9-4.3,11.9-1.6c-0.4,1.7,0.9,2.7,1.6,3.9c5.4,9.5,10.5,19.1,14.9,29.1
		c1.7,3.9,2.4,7.8,2.4,12c-0.1,32,0,64-0.1,95.9c0,4,0.1,8,1.8,11.7c-7.2,5-14.9,9.1-22.6,13.1c-1.6,0.8-3.6,1.1-5.3-0.2
		c1.5-1.4,0.9-2.7,0.1-4.3c-2.4-4.8-5.4-9.4-7.9-14.2c-0.8-1.6-2.6-3.5,0.3-5c2.2-1.7,1.4-4.2,1.4-6.3c0-42.3,0-84.6,0-126.9
		C615.3,289.9,615,287.3,616.6,285.1z"/>
	<path class="st129" d="M649.2,436.2c-2.5-1.5-3-3.6-3-6.4c0.1-33.1-0.1-66.3,0.2-99.4c0.1-7.9-2.6-14.5-5.9-21.1
		c-3.9-7.7-7.7-15.4-12.2-22.8c-0.5-0.8-2.3-2.3,0.3-3c20.8,11.9,41.7,23.7,62.5,35.6c2.2,1.3,5,2.1,5.8,5.1
		c-4.8,6-7.6,13.1-11.5,19.6c-2.9,4.8-5.3,9.9-8.1,14.7c-1.2,2.1-2.3,4.2-5.1,4.6c-1.6,0.2-1.5,1.6-1.5,2.8c0,17.5,0,34.9,0,52.4
		c0,2,1,3.2,2.3,4.4C665.2,427.7,657.2,431.9,649.2,436.2z"/>
	<path class="st130" d="M616.6,285.1c0,46,0,92,0,138.1c0,3-0.1,5.3-4,3.5c-2.5-1-3.2-3.5-4.3-5.5c-4.4-8.2-8.9-16.3-13.4-24.4
		c-1-1.8-1.8-3.6-1.2-5.7c0-27.2,0-54.4,0-81.6c0-3.5-0.3-6.9-2-10C599.8,294.3,608.1,289.5,616.6,285.1z"/>
	<path class="st131" d="M594.1,392.2c3,7.1,7.3,13.6,10.8,20.4c2.4,4.7,5.1,9.3,7.7,13.9c3.5,6.4,6.7,13,10.5,19.2
		c1.7,2.9,0.8,3.3-1.8,3.2c-12.8-7.3-25.6-14.5-38.4-21.8c-8.8-5-17.5-10.1-26.2-15.1c-1.5-0.9-3.2-1.4-4.1-3
		c-1.2-1.8-0.2-3.3,0.6-4.8c7-12.3,14.4-24.4,21.4-36.7c0.9-1.6,1.9-3.3,4.2-2.9c0.6,0.3,1.2,0.7,1.5,1.3
		c4.5,8.4,9.4,16.6,13.7,25.2C594.2,391.4,594.1,391.9,594.1,392.2z"/>
	<path class="st132" d="M672.8,422.7c-2.6,0.6-3.5-0.4-3.4-3c0.1-18.5,0.1-37,0-55.5c0-2,0-3.6,2.8-2.2c1.7,0.8,2.3-0.8,2.9-1.9
		c6.2-11.2,12.3-22.4,18.4-33.5c0.7-1.3,0.9-3.4,3.3-2.3c1.3,1.6,1.2,3.5,1.2,5.3c0,24.5-0.1,49,0,73.5c0,3.8-1.5,6.3-4.7,8.1
		C686.4,415,679.6,418.9,672.8,422.7z"/>
	<path class="st133" d="M594.1,392.2c-5.6-8.7-10.3-18-15.2-27.2c-3.8-2.5-4.9-6.8-7-10.4c-5.2-9.1-10.3-18.3-15.1-27.6
		c-1-1.9-2.5-3.4-3.5-5.3c8.6-6,18-10.6,26.9-16c3.7-2.2,7.6-4.2,11.5-6.3c3.6,0.8,3.3,3.7,3.3,6.4c0,22.7,0,45.3,0,68
		c0,4.9,0,9.9,0,14.8C595,389.8,595.4,391.2,594.1,392.2z"/>
	<path class="st134" d="M53.1,350.8c5,6.8,10.1,13.6,15.1,20.4c1.3,1.8,2.1,2,3.6,0c4.7-6.4,9.5-12.6,14.3-19
		c0.2-0.3,0.5-0.6,0.7-0.9c0.6-0.7,1.4-1.7,2.3-1.1c1.1,0.8-0.1,1.7-0.6,2.3c-5,6.7-10.1,13.4-15.2,20c-1.4,1.8-1.7,3-0.1,5
		c5.7,7.1,11.3,14.4,16.8,21.6c0.6,0.7,2.2,1.6,1.1,2.6c-1.2,1-2.1-0.3-2.9-1.3c-5.3-6.9-10.6-13.7-15.9-20.6c-2.3-3-2.3-3-4.6-0.1
		c-5.1,6.6-10.3,13.3-15.3,20c-1.3,1.7-2.7,2.4-4.9,2.4c-14.6-0.1-29.1-0.1-43.7,0c-2.4,0-3.4-0.5-3.4-3.2c0.1-21.8,0.1-43.7,0-65.5
		c0-2.7,0.6-3.8,3.6-3.7c13.8,0.1,27.6,0.1,41.4,0.1c0.6,0,1.1,0,1.7,0c0.7,0,1.4,0.2,1.4,1c0,1-0.7,1.2-1.5,1.3c-0.7,0-1.5,0-2.2,0
		c-13,0-25.9,0.1-38.9-0.1c-2.5,0-3.2,0.8-3.1,3.2c0.1,8.4,0.1,16.8,0,25.2c0,2.3,0.6,3,3,3c12.2-0.1,24.4-0.1,36.7,0
		c0.7,0,1.5,0,2.2,0c0.6,0,1.1,0.3,1.2,0.9c0,0.7-0.5,1-1.1,1c-0.8,0.1-1.7,0.1-2.5,0.1c-12.1,0-24.3,0.1-36.4,0c-2.3,0-3.1,0.6-3,3
		c0.1,9.5,0.1,19,0,28.5c0,2.6,0.9,3.1,3.2,3.1c13.9-0.1,27.8-0.1,41.7,0c1.4,0,2.2-0.5,3-1.5c5.4-7,10.8-14.1,16.2-21
		c1.3-1.7,1.4-2.9,0.1-4.6c-5.3-6.8-10.4-13.6-15.6-20.5c-0.3-0.7-1.3-1.4-0.5-2.2C51.7,349.5,52.4,350.5,53.1,350.8z"/>
	<path class="st135" d="M553.3,321.7c2.9,0.6,3.6,3.4,4.7,5.5c6.5,11.8,12.9,23.7,19.4,35.5c0.4,0.8,1,1.6,1.5,2.3
		c-2.1,0.1-2.8,1.8-3.6,3.3c-7,12.1-14.1,24.2-21.2,36.3c-0.8,1.4-1.6,2.7-1.6,4.4c-2-1.6-2.3-3.7-2.3-6.1c0-24.9,0-49.8,0-74.8
		C550.2,325.6,550.9,323.3,553.3,321.7z"/>
	<path class="st136" d="M1000.7,366.6c1.9,5.6-2,8.3-7,11.4c-5.2,3.3-9,3.1-14.3,0c-5.2-3.1-7.5-6.1-7.3-12.4
		c0.1-6.1,1.6-9.7,7.3-12.8c5.3-2.9,9.2-3.4,14.3,0.1C1000.4,357.5,1000.7,357.2,1000.7,366.6z"/>
	<path class="st137" d="M244.9,403.2c-5.9-0.2-11.6-0.9-15.9-5.5c-3.1-3.2-4.2-7.2-4.3-11.5c0-0.7-0.1-1.7,0.8-1.8
		c1.2-0.2,1.2,0.9,1.3,1.7c0.4,4.7,1.8,8.9,6,11.8c6.3,4.3,18.8,4.3,24.7-0.1c7.1-5.3,6.1-14.6-1.9-18.2c-3.3-1.5-6.9-2.2-10.4-3.1
		c-3.5-0.9-7-1.8-10.5-3c-4.4-1.6-7.4-4.3-8-9.1c-0.6-5.2,1.1-9.3,5.4-12.3c7.2-5,21-4,26.9,1.9c2.8,2.7,3.6,6.2,3.9,9.9
		c0.1,0.7,0,1.4-0.9,1.5c-0.9,0.1-1.4-0.4-1.5-1.2c-0.1-0.5-0.1-0.9-0.1-1.4c-0.4-4.2-2.4-7.5-6.2-9.3c-6.8-3.2-13.7-3.3-20.4,0.2
		c-3.6,1.9-5.2,5.1-5.1,9.2c0.2,4.2,2.4,6.9,6.3,8.3c4.8,1.8,9.8,2.9,14.8,4.2c2.3,0.7,4.6,1.4,6.9,2.4c4.5,1.9,7.3,4.9,7.6,10.1
		c0.3,5.6-1.9,9.7-6.7,12.5C253.7,402.7,249.3,403.3,244.9,403.2z"/>
	<path class="st138" d="M292.2,403.2c-6.7-0.2-12.5-1-16.8-5.8c-3-3.3-4-7.3-4-11.6c0-0.7,0.1-1.4,0.9-1.4c0.8,0,1.1,0.6,1.1,1.3
		c0,0.3,0,0.6,0.1,0.8c1.2,9.2,6.5,14.1,15.8,14.5c4.5,0.2,9,0,13.1-2.1c4.1-2.1,6.7-5.4,6.5-10.2c-0.1-4.8-3.1-7.6-7.2-9.4
		c-4.3-1.8-9-2.5-13.4-3.8c-2.5-0.7-5-1.5-7.5-2.3c-4.3-1.4-6.9-4.3-7.4-8.9c-0.6-4.8,0.8-8.8,4.8-11.8c6.5-4.9,20.1-4.8,26.4,0.3
		c3.4,2.8,4.8,6.5,5,10.8c0,0.7,0.2,1.6-0.9,1.7c-1,0.1-1.3-0.6-1.3-1.4c-0.4-10.2-9.1-13.1-17.3-12.9c-3.3,0.1-6.5,0.6-9.4,2.4
		c-3.6,2.2-5.4,5.3-5.2,9.5c0.2,4.2,2.5,7,6.4,8.2c5.9,1.8,11.8,3.3,17.7,5.1c3.8,1.2,7.7,2.6,9.9,6.3c3.6,6.1,1.1,14.3-5.3,17.8
		C300.2,402.7,295.9,403.3,292.2,403.2z"/>
	<path class="st139" d="M152.4,361.1c2.6-5.2,6.2-9,11.7-10.8c1.8-0.6,3.7-1.2,5.7-1.2c1.1,0,2.9-0.8,3.1,0.8
		c0.2,1.7-1.8,1.2-2.8,1.3c-7.1,0.6-12.2,4.1-15.2,10.7c-1.7,3.7-2.4,7.6-2.4,11.7c0,8.5,0,17,0,25.5c0,0.7,0,1.3,0,2
		c0,0.6-0.3,1.1-1,1.1c-0.7,0-1-0.5-1-1.1c0-0.6,0-1.1,0-1.7c0-15.3,0-30.6,0-45.9c0-0.4,0-0.7,0-1.1c0.1-0.8-0.1-2,1.1-1.9
		c1.2,0.1,0.9,1.2,0.9,2C152.4,355.2,152.4,358.2,152.4,361.1z"/>
	<path class="st140" d="M53.1,350.8c-1.8-0.7-2.5-0.2-1.7,1.7c-1-0.5-1.8-1.4-1.1-2.3C51.2,349.3,52.5,349.4,53.1,350.8z"/>
	<path class="st127" d="M879.5,310c0,30.7-0.1,61.3,0.1,92c0,5.5-1.9,8.9-6.7,11.6c-20.9,11.8-41.6,23.9-62.4,35.9
		c-3.6,2.1-6.9,2.2-10.5,0.1c-21.2-12.3-42.4-24.6-63.7-36.8c-3.8-2.2-5.4-5.1-5.4-9.4c0.1-24.4,0.1-48.8,0-73.2
		c0-4.2,1.6-7,5.2-9.1c21.3-12.2,42.5-24.4,63.7-36.7c3.6-2.1,7-2.2,10.5-0.1c4.3,2.6,8.8,5.1,13.2,7.6c4.9,2.8,6.5,1.9,6.5-3.7
		c0-31.1,0-62.1,0-93.2c0-1.5,0-2.9,0-4.4c0.1-4.9,2.7-6.5,7.1-4.1c11.1,6.1,22.1,12.3,33.2,18.5c1,0.6,2.1,1.2,3.2,1.7
		c4.4,2,6.1,5.4,6.1,10.2C879.4,247.8,879.5,278.9,879.5,310z M792.8,388.7c9,5.5,15.5,5.3,24.6,0c9.2-5.4,14.5-10.8,12.4-21.8
		c-0.9-4.6,1.6-10.3-0.9-14c-2.4-3.5-7.5-5.1-11.6-7.4c-4-2.3-7.8-6.3-12.2-6.4c-4.6-0.1-8.2,4.6-12.6,6.3
		c-9.8,3.9-15.4,10-11.6,21.3C776.7,378.4,783.8,383.2,792.8,388.7z"/>
	<path class="st141" d="M98.6,390.1c-0.5,1.1-0.3,2.3-0.3,3.5c0,7.9,0,15.9,0,23.8c0,1,0.3,2.4-1.2,2.4c-1.4,0-1.2-1.4-1.2-2.4
		c0-21.5,0-43.1,0-64.6c0-1-0.3-2.4,1.2-2.4c1.5,0,1.2,1.4,1.2,2.4c0,3.3,0,6.5,0,10.4c1.6-2.4,2.7-4.5,4.1-6.2
		c9.8-12.2,28.9-10.2,35.5,3.9c5.2,11.1,4.9,22.3-1.5,32.9c-4.1,6.8-10.5,9.7-18.4,9.5c-8.3-0.3-14.4-3.9-18.2-11.3
		c-0.3-0.6-0.6-1.2-0.9-1.7C98.9,390.1,98.7,390.1,98.6,390.1z M136.6,363.4c-3-7.1-8.1-11.5-16-12.1c-7.6-0.5-13.8,2.3-17.8,8.8
		c-6.1,9.8-6.2,20.3-1.5,30.5c5.7,12.4,23.1,14.3,31.8,3.9c4.5-5.4,5.7-11.8,5.8-18.5C139,371.6,138.4,367.4,136.6,363.4z"/>
	<path class="st137" d="M197.1,376.6c-6.3,0-12.7,0-19,0c-1.1,0-2.5-0.3-2.4,1.5c0.5,8.2,2.1,15.8,9.8,20.5
		c9,5.4,27.1,3.3,30.1-12.1c0.1-0.4,0.1-0.7,0.3-1.1c0.3-0.7,0.7-1.5,1.6-1.2c1,0.3,0.7,1.2,0.5,1.9c-1.5,7.5-5.7,12.9-12.9,15.6
		c-8.3,3.1-20.2,2-25.9-5.6c-3.1-4-4.7-8.7-5.3-13.6c-1.4-10.7,0.1-20.8,8.7-28.4c10.9-9.7,28.6-5.3,34,8.2
		c1.5,3.8,2.2,7.7,2.4,11.7c0.1,2-0.5,2.6-2.5,2.6C210,376.5,203.6,376.6,197.1,376.6z M214.4,374.5c1.7,0,2.3-0.5,2.2-2.3
		c-0.1-2.1-0.6-4-1.1-6c-2.6-11.2-14.1-17.7-25.1-14.2c-9.6,3-14.1,12.6-14.7,20.9c-0.1,1.8,1.2,1.6,2.3,1.6c6.1,0,12.1,0,18.2,0
		C202.3,374.5,208.3,374.5,214.4,374.5z"/>
</g>
</svg>
